<svg
  xmlns="http://www.w3.org/2000/svg"
  viewBox="0 0 78.378 60.811"
  fill="none"
>
  <path
    d="M 62.103 0.407 L 16.021 0.407 C 7.4 0.407 0.409 7.4 0.409 16.021 L 0.662 27.297 C 0.662 34.454 5.474 40.477 12.036 42.317 L 8.853 59.592 L 23.233 42.91 L 62.345 42.91 C 70.967 42.91 77.948 35.918 77.948 27.307 L 77.695 16.031 C 77.695 7.411 70.703 0.43 62.092 0.43 L 62.103 0.408 Z"
    fill="var(--icon-bg, #ffffff)"
  />
  <path
    d="M 8.853 60 C 8.791 60.001 8.731 59.986 8.677 59.956 C 8.508 59.874 8.413 59.689 8.446 59.504 L 11.562 42.602 C 4.889 40.565 0.253 34.322 0.253 27.297 L 0 16.02 C 0 7.191 7.19 0 16.021 0 L 62.103 0 C 70.934 0 78.125 7.19 78.125 16.021 L 78.378 27.297 C 78.378 36.139 71.188 43.329 62.357 43.329 L 23.432 43.329 L 9.172 59.868 C 9.093 59.956 8.982 60.008 8.864 60.011 L 8.854 60 Z M 16.021 0.826 C 7.641 0.826 0.826 7.642 0.826 16.02 L 1.079 27.296 C 1.079 34.079 5.638 40.091 12.156 41.93 C 12.366 41.985 12.486 42.194 12.454 42.403 L 9.547 58.171 L 22.937 42.634 C 23.014 42.544 23.126 42.492 23.245 42.491 L 62.357 42.491 C 70.737 42.491 77.552 35.675 77.552 27.296 L 77.299 16.02 C 77.299 7.63 70.483 0.814 62.103 0.814 L 16.021 0.814 L 16.021 0.824 Z"
    fill="currentColor"
  />
  <path
    d="M 61.388 20.998 C 61.387 18.899 59.686 17.198 57.587 17.199 C 55.488 17.2 53.787 18.901 53.788 21 C 53.789 23.099 55.49 24.8 57.589 24.799 C 59.688 24.798 61.389 23.097 61.388 20.998 Z"
    fill="var(--icon-accent, #ffe7a9)"
  />
  <path
    d="M 57.589 25.215 C 56.071 25.239 54.658 24.442 53.892 23.132 C 53.126 21.821 53.126 20.199 53.892 18.888 C 54.657 17.577 56.07 16.781 57.588 16.804 C 59.911 16.804 61.794 18.687 61.794 21.01 C 61.794 23.333 59.911 25.216 57.588 25.216 Z M 57.589 17.618 C 55.724 17.622 54.213 19.133 54.209 20.998 C 54.213 22.863 55.724 24.374 57.589 24.378 C 59.449 24.378 60.969 22.859 60.969 20.998 C 60.969 19.138 59.449 17.618 57.589 17.618 Z"
    fill="currentColor"
  />
  <path
    d="M 42.988 20.998 C 43.01 19.626 42.29 18.349 41.105 17.656 C 39.92 16.964 38.454 16.964 37.27 17.657 C 36.085 18.35 35.366 19.628 35.389 21 C 35.423 23.074 37.114 24.738 39.189 24.738 C 41.263 24.738 42.954 23.074 42.988 21 Z"
    fill="var(--icon-accent, #ffe7a9)"
  />
  <path
    d="M 39.189 25.215 C 37.671 25.238 36.258 24.442 35.493 23.131 C 34.727 21.82 34.727 20.199 35.493 18.888 C 36.258 17.577 37.671 16.781 39.189 16.804 C 41.512 16.804 43.395 18.687 43.395 21.01 C 43.395 23.333 41.512 25.216 39.189 25.216 Z M 39.189 17.618 C 37.329 17.618 35.809 19.138 35.809 20.998 C 35.809 22.859 37.329 24.378 39.189 24.378 C 41.049 24.378 42.569 22.859 42.569 20.998 C 42.569 19.138 41.049 17.618 39.189 17.618 Z"
    fill="currentColor"
  />
  <path
    d="M 24.577 20.998 C 24.608 19.62 23.891 18.333 22.702 17.635 C 21.514 16.937 20.04 16.937 18.852 17.636 C 17.664 18.335 16.947 19.622 16.979 21 C 16.979 23.099 18.68 24.8 20.779 24.8 C 22.878 24.8 24.579 23.099 24.579 21 Z"
    fill="var(--icon-accent, #ffe7a9)"
  />
  <path
    d="M 20.779 25.215 C 19.261 25.239 17.848 24.443 17.082 23.132 C 16.316 21.821 16.316 20.2 17.081 18.889 C 17.846 17.578 19.259 16.781 20.777 16.804 C 23.1 16.804 24.983 18.687 24.984 21.009 C 24.984 23.332 23.101 25.216 20.778 25.216 Z M 20.779 17.618 C 18.914 17.622 17.402 19.133 17.398 20.998 C 17.398 22.859 18.918 24.378 20.778 24.378 C 22.643 24.374 24.154 22.863 24.158 20.998 C 24.158 19.138 22.639 17.618 20.778 17.618 Z"
    fill="currentColor"
  />
</svg>