<svg
  xmlns="http://www.w3.org/2000/svg"
  viewBox="0 0 27.263 19.147"
  fill="none"
>
  <path
    d="M 25.805 0.701 C 18.32 0.607 10.835 0.55 3.35 0.528 C 2.243 0.528 0.82 0.787 0.554 2.037 C 0.432 6.931 0.759 11.82 1.09 16.697 C 1.126 17.244 1.167 17.805 1.396 18.29 C 1.626 18.774 2.095 19.161 2.514 19.147 C 9.988 19.09 17.463 19.028 24.937 18.973 C 25.611 18.967 26.376 18.917 26.892 18.177 C 27.784 13.315 26.734 8.264 27.147 3.325 C 27.193 2.763 27.26 2.187 27.096 1.651 C 26.932 1.12 26.458 0.657 25.81 0.691 L 25.805 0.702 Z"
    fill="var(--icon-bg, #ffffff)"
    stroke="currentColor"
    stroke-width="0.4"
    stroke-miterlimit="10"
  />
  <path
    d="M 2.142 19.005 C 1.678 19.005 1.153 18.603 0.883 18.036 C 0.633 17.511 0.591 16.909 0.556 16.373 C 0.235 11.572 -0.096 6.602 0.026 1.699 L 0.026 1.664 C 0.249 0.592 1.301 0 2.984 0 L 3.006 0 C 10.455 0.025 18.01 0.082 25.454 0.174 C 26.225 0.132 26.75 0.695 26.929 1.266 C 27.092 1.801 27.046 2.363 27 2.904 L 26.99 3.01 C 26.811 5.123 26.909 7.296 27 9.399 C 27.123 12.195 27.245 15.088 26.735 17.883 C 26.735 17.909 26.72 17.934 26.704 17.96 C 26.097 18.822 25.158 18.832 24.593 18.836 L 2.168 19.011 L 2.137 19.011 L 2.143 19.005 Z M 0.404 1.725 C 0.281 6.608 0.618 11.563 0.94 16.353 C 0.976 16.853 1.012 17.419 1.225 17.878 C 1.43 18.312 1.842 18.638 2.159 18.627 L 24.588 18.454 C 25.267 18.449 25.91 18.393 26.364 17.777 C 26.859 15.042 26.737 12.184 26.618 9.419 C 26.526 7.307 26.43 5.117 26.614 2.985 L 26.625 2.877 C 26.665 2.373 26.71 1.847 26.568 1.388 C 26.435 0.955 26.042 0.536 25.476 0.567 L 25.46 0.567 C 17.975 0.473 10.49 0.415 3.004 0.393 L 2.984 0.393 C 1.939 0.382 0.647 0.617 0.403 1.725 Z"
    fill="currentColor"
    stroke="currentColor"
    stroke-width="0.4"
    stroke-miterlimit="10"
  />
  <path
    d="M 1.774 18.784 C 1.724 18.786 1.675 18.765 1.641 18.728 C 1.604 18.693 1.583 18.644 1.583 18.593 C 1.583 18.541 1.604 18.493 1.641 18.457 C 4.623 15.371 7.72 12.399 10.927 9.548 C 11.006 9.478 11.127 9.485 11.198 9.564 C 11.268 9.643 11.261 9.764 11.182 9.835 C 7.985 12.682 4.894 15.647 1.917 18.723 C 1.881 18.761 1.831 18.781 1.779 18.779 Z M 26.249 18.217 C 26.204 18.218 26.161 18.202 26.127 18.172 C 23.045 15.565 20.005 12.839 17.096 10.07 C 17.058 10.035 17.037 9.987 17.036 9.936 C 17.035 9.885 17.054 9.836 17.09 9.799 C 17.125 9.762 17.174 9.74 17.225 9.739 C 17.276 9.738 17.325 9.758 17.362 9.794 C 20.264 12.56 23.3 15.279 26.376 17.881 C 26.416 17.913 26.44 17.96 26.444 18.011 C 26.448 18.062 26.431 18.113 26.397 18.151 C 26.361 18.195 26.306 18.219 26.249 18.217 Z"
    fill="currentColor"
    stroke="currentColor"
    stroke-width="0.4"
    stroke-miterlimit="10"
  />
  <path
    d="M 26.209 1.641 C 22.653 5.093 18.936 8.375 15.071 11.478 C 14.679 11.968 14.189 12.044 13.796 11.932 C 13.402 11.82 13.076 11.559 12.765 11.304 C 8.814 8.078 4.911 4.794 1.056 1.453 C 1.122 0.871 1.935 0.712 2.555 0.707 C 9.949 0.646 17.347 0.585 24.74 0.528 C 25.169 0.528 25.617 0.528 25.995 0.718 C 26.372 0.906 26.576 1.284 26.204 1.647 Z"
    fill="var(--icon-bg, #ffffff)"
    stroke="currentColor"
    stroke-width="0.4"
    stroke-miterlimit="10"
  />
  <path
    d="M 14.312 11.837 C 14.184 11.838 14.057 11.819 13.935 11.781 C 13.496 11.654 13.143 11.367 12.837 11.118 C 8.881 7.894 4.975 4.608 1.123 1.26 C 1.076 1.219 1.051 1.159 1.056 1.097 C 1.117 0.52 1.735 0.189 2.745 0.178 L 24.935 0 C 25.342 0 25.848 -0.005 26.275 0.209 C 26.563 0.353 26.746 0.572 26.782 0.817 C 26.807 0.97 26.782 1.204 26.537 1.444 C 22.981 4.894 19.266 8.177 15.404 11.282 C 15.102 11.643 14.72 11.837 14.317 11.837 Z M 1.459 1.046 C 4.869 4.015 8.674 7.211 13.082 10.822 C 13.363 11.052 13.68 11.311 14.042 11.414 C 14.272 11.48 14.72 11.516 15.118 11.021 L 15.149 10.989 C 19.008 7.89 22.719 4.611 26.271 1.163 C 26.374 1.062 26.419 0.965 26.408 0.868 C 26.388 0.751 26.282 0.628 26.108 0.54 C 25.761 0.367 25.322 0.373 24.939 0.373 L 2.752 0.567 C 2.191 0.567 1.583 0.704 1.46 1.051 L 1.46 1.045 Z"
    fill="currentColor"
    stroke="currentColor"
    stroke-width="0.4"
    stroke-miterlimit="10"
  />
</svg>