<svg
  class="icon-quote"
  xmlns="http://www.w3.org/2000/svg"
  viewBox="0 0 34.376 25"
  fill="none"
  aria-hidden="true"
>
  <path
    d="M 34.093 19.136 C 35.577 12.057 30.882 9.985 27.746 10.189 C 27.436 10.209 27.183 9.908 27.298 9.604 C 27.885 8.057 29.333 5.654 31.878 4.781 C 34.831 3.768 33.354 1.544 32.248 0.558 C 30.35 -1.13 23.574 0.671 20.071 10.692 C 14.904 25.47 31.879 29.692 34.092 19.136 Z M 14.995 19.136 C 16.479 12.057 11.785 9.985 8.649 10.189 C 8.338 10.209 8.086 9.908 8.201 9.604 C 8.788 8.057 10.236 5.654 12.782 4.781 C 15.734 3.768 14.258 1.544 13.15 0.558 C 11.252 -1.13 4.476 0.671 0.973 10.692 C -4.192 25.47 12.782 29.692 14.995 19.136 Z"
    fill="var(--icon-fill, #ffe7a9)"
    stroke="currentColor"
    stroke-linecap="round"
    stroke-miterlimit="10"
  />
</svg>