<svg
  class="icon-browser"
  xmlns="http://www.w3.org/2000/svg"
  viewBox="0 0 48 48"
  fill="none"
  aria-hidden="true"
>
  <g transform="translate(4 8)">
    <path
      d="M 40 3 C 40 1.343 38.657 0 37 0 L 3 0 C 1.343 0 0 1.343 0 3 L 0 12 L 40 12 Z"
      fill="var(--icon-fill, #fbebea)"
      stroke="currentColor"
      stroke-width="1"
      stroke-linecap="round"
      stroke-linejoin="round"
    />

    <path
      d="M 0 13.03 L 12.176 0.729 L 18.755 7.03 L 26.798 0 L 31.279 4.368"
      fill="transparent"
      stroke="currentColor"
      stroke-width="1"
      stroke-linecap="round"
      stroke-linejoin="round"
      transform="translate(0.112 18)"
    />

    <path
      d="M 32 0 L 32 19 C 32 20.657 30.657 22 29 22 L 0 22"
      fill="transparent"
      stroke="currentColor"
      stroke-width="1"
      stroke-linecap="round"
      stroke-linejoin="round"
      transform="translate(8 10)"
    />

    <path
      d="M 0 0 L 18 0"
      fill="transparent"
      stroke="currentColor"
      stroke-width="1"
      stroke-linecap="round"
      stroke-linejoin="round"
      transform="translate(15.112 6)"
    />

    <path
      d="M 0 0 L 2 0"
      fill="transparent"
      stroke="currentColor"
      stroke-width="1"
      stroke-linecap="round"
      stroke-linejoin="round"
      transform="translate(7.111 6)"
    />

    <path
      d="M 0 0 L 0 9"
      fill="transparent"
      stroke="currentColor"
      stroke-width="1"
      stroke-linecap="round"
      stroke-linejoin="round"
      transform="translate(0 10)"
    />
  </g>
</svg>