<svg
  class="icon-gift"
  xmlns="http://www.w3.org/2000/svg"
  viewBox="0 0 48 48"
  fill="none"
  aria-hidden="true"
>
  <g transform="translate(4.217 3.695)">
    <path
      d="M 33.332 0.001 L 33.332 15 C 33.333 15.442 33.157 15.866 32.845 16.179 C 32.532 16.491 32.108 16.667 31.666 16.667 L 1.666 16.667 C 1.224 16.667 0.8 16.491 0.488 16.179 C 0.175 15.866 0 15.442 0 15 L 0 0 L 33.332 0 Z"
      fill="var(--icon-fill, #fbebea)"
      transform="translate(3.334 21.666)"
    />

    <path
      d="M 38.333 0 L 1.667 0 C 0.746 0 0 0.746 0 1.667 L 0 8.333 C 0 9.254 0.746 10.001 1.667 10.001 L 38.333 10.001 C 39.254 10.001 40 9.254 40 8.333 L 40 1.667 C 40 0.746 39.254 0 38.333 0 Z"
      fill="transparent"
      stroke="currentColor"
      stroke-width="1"
      stroke-linecap="round"
      stroke-linejoin="round"
      transform="translate(0 11.667)"
    />

    <path
      d="M 33.332 21.667 L 33.332 36.666 C 33.333 37.108 33.157 37.532 32.845 37.845 C 32.532 38.158 32.108 38.333 31.666 38.333 L 1.666 38.333 C 1.224 38.333 0.8 38.158 0.488 37.845 C 0.175 37.532 0 37.108 0 36.666 L 0 21.666 M 16.666 11.667 L 16.666 38.333 M 26.831 1.502 C 28.776 3.449 28.891 6.723 26.831 8.548 C 23.307 11.668 16.666 11.668 16.666 11.668 C 16.666 11.668 16.666 5.026 19.791 1.503 C 21.61 -0.558 24.885 -0.443 26.83 1.503 Z M 6.502 1.502 C 4.555 3.449 4.441 6.723 6.502 8.548 C 10.024 11.668 16.666 11.668 16.666 11.668 C 16.666 11.668 16.666 5.026 13.541 1.503 C 11.722 -0.558 8.447 -0.443 6.502 1.503 Z"
      fill="transparent"
      stroke="currentColor"
      stroke-width="1"
      stroke-linecap="round"
      stroke-linejoin="round"
      transform="translate(3.334 0)"
    />
  </g>
</svg>