<svg
  xmlns="http://www.w3.org/2000/svg"
  viewBox="0 0 16 16"
  fill="none"
>
  <path
    d="M 5.329 0.989 C 5.228 0.927 5.172 0.811 5.185 0.693 C 5.199 0.574 5.279 0.474 5.392 0.436 C 7.665 -0.347 10.17 -0.066 12.212 1.202 C 12.286 1.248 12.337 1.324 12.352 1.41 C 12.366 1.496 12.344 1.585 12.289 1.653 C 11.399 2.791 10.306 3.756 9.067 4.499 C 8.066 3.093 6.795 1.9 5.329 0.989 Z M 7.968 5.077 C 6.845 3.544 5.367 2.306 3.661 1.468 C 3.561 1.42 3.443 1.43 3.353 1.494 C 1.972 2.482 0.939 3.882 0.404 5.494 C 0.377 5.577 0.386 5.668 0.43 5.744 C 0.474 5.82 0.549 5.873 0.635 5.891 C 1.438 6.064 2.256 6.152 3.078 6.154 C 4.767 6.155 6.436 5.787 7.968 5.077 Z M 15.953 7.13 C 15.757 5.346 14.966 3.68 13.708 2.4 C 13.646 2.337 13.559 2.304 13.471 2.309 C 13.383 2.314 13.301 2.356 13.246 2.426 C 12.273 3.666 11.082 4.719 9.732 5.534 C 10.153 6.265 10.502 7.035 10.774 7.834 C 11.876 7.535 13.013 7.384 14.155 7.385 C 14.643 7.385 15.131 7.412 15.616 7.467 C 15.708 7.476 15.798 7.444 15.864 7.379 C 15.929 7.314 15.962 7.224 15.953 7.132 Z M 11.114 9.015 C 11.342 9.984 11.457 10.978 11.456 11.974 C 11.456 12.927 11.35 13.878 11.14 14.808 C 11.113 14.925 11.155 15.046 11.249 15.12 C 11.343 15.194 11.471 15.208 11.578 15.154 C 13.946 13.966 15.575 11.684 15.929 9.058 C 15.94 8.976 15.917 8.894 15.867 8.829 C 15.817 8.764 15.742 8.722 15.661 8.712 C 14.14 8.517 12.595 8.621 11.114 9.02 Z M 9.603 8.211 C 9.355 7.483 9.036 6.782 8.65 6.118 C 6.911 6.953 5.007 7.386 3.078 7.385 C 2.176 7.385 1.277 7.291 0.395 7.104 C 0.309 7.086 0.219 7.105 0.148 7.158 C 0.077 7.21 0.032 7.29 0.025 7.378 C 0.009 7.583 0.001 7.79 0 8 C -0.001 10.214 0.919 12.329 2.538 13.839 C 2.607 13.902 2.7 13.93 2.792 13.917 C 2.884 13.903 2.964 13.848 3.012 13.768 C 4.513 11.221 6.838 9.261 9.603 8.213 Z M 3.977 14.558 C 3.936 14.629 3.925 14.714 3.947 14.793 C 3.969 14.872 4.022 14.939 4.094 14.979 C 5.703 15.881 7.574 16.199 9.39 15.878 C 9.5 15.859 9.591 15.781 9.625 15.675 C 10.022 14.482 10.225 13.233 10.225 11.976 C 10.226 11.11 10.129 10.247 9.938 9.402 C 7.417 10.384 5.312 12.205 3.977 14.558 Z"
    fill="currentColor"
  />
</svg>