<svg
  xmlns="http://www.w3.org/2000/svg"
  viewBox="0 0 16 16"
  fill="none"
>
  <path
    d="M 8.822 0 C 9.722 0.002 10.179 0.007 10.574 0.018 L 10.729 0.024 C 10.908 0.03 11.085 0.038 11.298 0.048 C 12.149 0.088 12.73 0.222 13.24 0.42 C 13.768 0.623 14.213 0.898 14.657 1.342 C 15.064 1.742 15.379 2.226 15.58 2.76 C 15.777 3.269 15.912 3.85 15.952 4.702 C 15.961 4.915 15.969 5.092 15.976 5.272 L 15.98 5.427 C 15.992 5.821 15.997 6.277 15.999 7.177 L 16 7.774 L 16 8.822 C 16.002 9.405 15.995 9.989 15.981 10.572 L 15.976 10.727 C 15.97 10.907 15.962 11.084 15.952 11.297 C 15.912 12.149 15.776 12.729 15.58 13.239 C 15.379 13.774 15.065 14.257 14.657 14.657 C 14.257 15.063 13.774 15.378 13.24 15.579 C 12.73 15.777 12.149 15.911 11.298 15.951 C 11.108 15.96 10.919 15.968 10.729 15.975 L 10.574 15.98 C 10.179 15.991 9.722 15.997 8.822 15.998 L 8.226 15.999 L 7.178 15.999 C 6.595 16.001 6.011 15.995 5.427 15.981 L 5.272 15.976 C 5.082 15.969 4.892 15.961 4.703 15.951 C 3.851 15.911 3.271 15.777 2.76 15.579 C 2.226 15.379 1.743 15.064 1.344 14.657 C 0.936 14.257 0.621 13.773 0.42 13.239 C 0.223 12.73 0.088 12.149 0.048 11.297 C 0.04 11.107 0.032 10.917 0.024 10.727 L 0.02 10.572 C 0.006 9.989 -0.001 9.405 0 8.822 L 0 7.177 C -0.002 6.594 0.004 6.01 0.018 5.427 L 0.024 5.272 C 0.03 5.092 0.038 4.915 0.048 4.702 C 0.088 3.85 0.222 3.27 0.42 2.76 C 0.621 2.225 0.936 1.742 1.344 1.342 C 1.744 0.936 2.227 0.621 2.76 0.42 C 3.271 0.222 3.851 0.088 4.703 0.048 C 4.915 0.038 5.093 0.03 5.272 0.024 L 5.427 0.019 C 6.011 0.005 6.594 -0.001 7.178 0.001 L 8.822 0.001 Z M 8 4 C 5.791 4 4 5.791 4 8 C 4 10.209 5.791 11.999 8 11.999 C 10.209 11.999 12 10.209 12 8 C 12 5.791 10.209 4 8 4 Z M 8 5.6 C 9.325 5.599 10.4 6.674 10.4 7.999 C 10.401 9.325 9.326 10.399 8.001 10.399 C 6.675 10.399 5.601 9.325 5.601 8 C 5.601 6.674 6.675 5.6 8.001 5.6 Z M 12.2 2.8 C 11.648 2.8 11.2 3.248 11.2 3.8 C 11.2 4.352 11.648 4.8 12.2 4.8 C 12.752 4.8 13.2 4.352 13.2 3.8 C 13.2 3.248 12.752 2.8 12.2 2.8 Z"
    fill="currentColor"
  />
</svg>