<svg
  xmlns="http://www.w3.org/2000/svg"
  viewBox="0 0 16 16"
  fill="none"
>
  <path
    d="M 12.761 13.697 C 12.658 13.884 12.463 14 12.25 14 L 8.75 14 C 8.551 14 8.365 13.898 8.258 13.729 L 5.306 9.09 L 1.015 13.809 C 0.798 14.043 0.432 14.058 0.196 13.843 C -0.04 13.628 -0.06 13.263 0.152 13.024 L 4.656 8.066 L 0.091 0.897 C -0.023 0.717 -0.031 0.489 0.072 0.303 C 0.174 0.116 0.371 0 0.584 0 L 4.084 0 C 4.283 0 4.469 0.102 4.576 0.271 L 7.528 4.91 L 11.819 0.191 C 12.036 -0.043 12.401 -0.058 12.638 0.157 C 12.874 0.372 12.894 0.737 12.682 0.976 L 8.178 5.93 L 12.742 13.104 C 12.856 13.284 12.863 13.511 12.761 13.697 Z"
    fill="currentColor"
    transform="translate(2 1)"
  />
</svg>