<svg display="block" role="presentation" viewBox="0 0 92 68" xmlns="http://www.w3.org/2000/svg" id="3906487789"><g d="M 0 0 L 72 0 L 72 68 L 0 68 Z M 7.322 9.134 L 7.322 66.554 L 52.322 65.609 L 52.846 8.319 Z M 7.322 67 C 7.076 66.997 6.878 66.799 6.875 66.553 L 6.875 9.135 C 6.875 8.891 7.067 8.694 7.311 8.688 L 52.841 7.873 C 52.961 7.874 53.076 7.92 53.163 8.003 C 53.249 8.088 53.296 8.204 53.293 8.325 L 52.768 65.615 C 52.765 65.855 52.572 66.05 52.332 66.056 L 7.332 67.001 L 7.322 67.001 Z M 7.768 9.57 L 7.768 66.097 L 51.886 65.172 L 52.4 8.771 L 7.768 9.571 Z M 65.754 6.289 L 66.829 3.693 C 67 3.277 67.197 2.831 67.592 2.608 C 67.96 2.395 68.422 2.426 68.843 2.498 C 69.352 2.582 69.923 2.774 70.1 3.246 C 70.266 3.687 70.006 4.16 69.757 4.56 C 69.175 5.487 68.57 6.401 67.945 7.3 C 67.81 7.492 67.67 7.69 67.467 7.809 C 67.296 7.908 67.099 7.939 66.901 7.939 C 66.439 7.939 65.971 7.736 65.712 7.362 C 65.458 6.989 65.458 6.443 65.749 6.282 L 65.754 6.288 Z M 66.906 8.386 C 66.273 8.386 65.681 8.09 65.354 7.613 C 65.121 7.275 65.032 6.839 65.121 6.47 C 65.161 6.288 65.257 6.122 65.396 5.998 L 66.424 3.516 C 66.584 3.122 66.834 2.525 67.379 2.213 C 67.883 1.927 68.469 1.974 68.921 2.052 C 69.783 2.192 70.318 2.54 70.525 3.08 C 70.785 3.77 70.349 4.456 70.141 4.788 C 69.554 5.718 68.941 6.647 68.319 7.55 C 68.184 7.748 67.997 8.018 67.696 8.19 C 67.457 8.323 67.186 8.389 66.912 8.381 Z M 65.987 6.668 C 65.962 6.73 65.962 6.938 66.081 7.114 C 66.242 7.348 66.564 7.499 66.901 7.499 C 67.041 7.499 67.161 7.473 67.244 7.426 C 67.358 7.358 67.457 7.223 67.576 7.052 C 68.198 6.158 68.799 5.249 69.378 4.326 C 69.581 4.009 69.773 3.646 69.679 3.402 C 69.596 3.184 69.274 3.022 68.765 2.94 C 68.454 2.888 68.065 2.852 67.805 2.997 C 67.545 3.142 67.395 3.48 67.234 3.864 L 66.159 6.46 C 66.124 6.548 66.059 6.621 65.977 6.668 Z M 16.813 3.693 C 16.18 3.843 15.463 4.046 15.178 4.623 C 15.032 4.908 15.027 5.235 15.017 5.551 C 14.98 7.177 14.944 8.801 15.12 10.416 C 15.183 10.988 15.287 11.585 15.666 12.026 C 16.039 12.467 16.771 12.665 17.223 12.296 C 17.597 11.99 17.633 11.45 17.639 10.972 L 17.717 6.06 C 17.732 5.198 17.602 4.118 16.818 3.688 Z M 16.652 12.94 C 16.142 12.929 15.661 12.703 15.328 12.317 C 14.882 11.792 14.757 11.117 14.684 10.468 C 14.503 8.822 14.539 7.156 14.575 5.541 C 14.585 5.209 14.591 4.799 14.783 4.42 C 15.188 3.615 16.185 3.381 16.714 3.256 C 16.821 3.23 16.934 3.245 17.031 3.298 C 17.805 3.724 18.184 4.653 18.163 6.065 L 18.085 10.977 C 18.08 11.397 18.065 12.177 17.504 12.639 C 17.264 12.835 16.962 12.94 16.652 12.935 Z M 16.73 4.17 C 16.242 4.295 15.754 4.466 15.572 4.82 C 15.474 5.017 15.463 5.292 15.458 5.562 C 15.422 7.145 15.385 8.781 15.562 10.37 C 15.614 10.847 15.697 11.382 16.003 11.74 C 16.226 12 16.693 12.156 16.938 11.953 C 17.161 11.772 17.187 11.351 17.192 10.967 L 17.27 6.055 C 17.285 5.105 17.104 4.471 16.73 4.17 Z M 30.878 3.693 C 30.245 3.843 29.528 4.046 29.243 4.623 C 29.098 4.908 29.093 5.235 29.082 5.551 C 29.046 7.177 29.009 8.801 29.186 10.416 C 29.248 10.988 29.352 11.585 29.731 12.026 C 30.111 12.467 30.837 12.665 31.289 12.296 C 31.662 11.99 31.699 11.45 31.704 10.972 L 31.782 6.06 C 31.797 5.198 31.668 4.118 30.884 3.688 Z M 30.712 12.94 C 30.202 12.929 29.721 12.703 29.388 12.317 C 28.942 11.792 28.818 11.117 28.744 10.468 C 28.563 8.818 28.599 7.156 28.636 5.541 C 28.641 5.214 28.651 4.804 28.843 4.42 C 29.248 3.615 30.245 3.381 30.775 3.256 C 30.882 3.231 30.994 3.246 31.091 3.298 C 31.865 3.724 32.244 4.653 32.223 6.065 L 32.145 10.977 C 32.14 11.397 32.125 12.177 31.564 12.639 C 31.324 12.835 31.022 12.939 30.712 12.935 Z M 30.795 4.17 C 30.307 4.295 29.819 4.466 29.638 4.82 C 29.538 5.022 29.528 5.292 29.523 5.557 C 29.487 7.14 29.451 8.776 29.627 10.364 C 29.679 10.842 29.762 11.377 30.069 11.735 C 30.292 11.995 30.759 12.151 31.003 11.948 C 31.226 11.766 31.253 11.346 31.258 10.962 L 31.335 6.05 C 31.351 5.1 31.169 4.466 30.795 4.165 Z M 44.939 3.693 C 44.305 3.843 43.589 4.046 43.303 4.623 C 43.158 4.908 43.153 5.235 43.143 5.551 C 43.106 7.177 43.069 8.801 43.246 10.416 C 43.308 10.988 43.412 11.585 43.791 12.026 C 44.171 12.467 44.897 12.665 45.349 12.296 C 45.723 11.99 45.759 11.45 45.764 10.972 L 45.842 6.06 C 45.858 5.198 45.728 4.118 44.944 3.688 Z M 44.778 12.94 C 44.279 12.94 43.77 12.69 43.454 12.317 C 43.007 11.792 42.883 11.117 42.81 10.468 C 42.628 8.822 42.665 7.156 42.7 5.541 C 42.711 5.209 42.717 4.799 42.909 4.42 C 43.314 3.615 44.31 3.381 44.845 3.256 C 44.952 3.231 45.065 3.245 45.162 3.298 C 45.946 3.729 46.315 4.632 46.294 6.065 L 46.216 10.977 C 46.211 11.397 46.196 12.177 45.64 12.633 C 45.4 12.829 45.098 12.933 44.788 12.929 L 44.778 12.939 Z M 44.856 4.17 C 44.368 4.295 43.879 4.466 43.698 4.82 C 43.599 5.017 43.588 5.292 43.584 5.562 C 43.547 7.145 43.511 8.781 43.687 10.37 C 43.739 10.847 43.822 11.382 44.129 11.74 C 44.352 12 44.819 12.156 45.063 11.953 C 45.287 11.772 45.313 11.351 45.318 10.967 L 45.396 6.055 C 45.411 5.105 45.23 4.471 44.856 4.17 Z M 55.126 24.887 C 52.462 30.152 50.396 34.97 47.42 40.852 C 47.156 41.637 46.813 42.405 46.647 43.215 C 46.481 44.03 46.517 44.918 46.958 45.625 C 47.4 46.33 48.334 46.777 49.124 46.491 C 49.783 46.252 50.188 45.608 50.536 45.011 C 53.994 39.061 57.036 32.742 60.209 26.641 L 55.126 24.881 Z M 48.615 47.026 C 47.835 47.026 47.036 46.59 46.579 45.863 C 46.003 44.944 46.06 43.869 46.211 43.132 C 46.335 42.525 46.548 41.953 46.751 41.398 C 46.834 41.169 46.922 40.941 47 40.712 C 47.005 40.692 47.016 40.676 47.026 40.655 C 48.552 37.639 49.846 34.892 51.091 32.234 C 52.296 29.674 53.433 27.249 54.731 24.684 C 54.831 24.484 55.065 24.39 55.276 24.466 L 60.359 26.226 C 60.482 26.266 60.582 26.359 60.63 26.479 C 60.678 26.599 60.67 26.735 60.609 26.849 C 59.705 28.589 58.797 30.375 57.914 32.104 C 55.697 36.465 53.402 40.972 50.925 45.234 C 50.609 45.78 50.131 46.605 49.279 46.912 C 49.067 46.988 48.844 47.027 48.619 47.026 Z M 47.831 41.024 C 47.753 41.252 47.67 41.476 47.587 41.704 C 47.384 42.249 47.192 42.769 47.083 43.309 C 46.963 43.89 46.912 44.721 47.333 45.391 C 47.643 45.889 48.36 46.294 48.973 46.076 C 49.477 45.894 49.814 45.365 50.152 44.794 C 52.618 40.552 54.908 36.055 57.119 31.704 C 57.924 30.126 58.749 28.495 59.581 26.901 L 55.349 25.437 C 54.129 27.862 53.044 30.172 51.896 32.613 C 50.65 35.266 49.362 38.007 47.836 41.029 Z M 60.328 28.049 C 59.321 27.623 55.588 25.884 54.009 24.856 C 55.879 21.678 56.517 19.674 58.179 16.32 C 58.822 15.017 61.226 10.364 61.73 9.373 C 63.729 5.416 66.569 6.258 68.122 7.338 C 70.894 9.264 67.748 13.002 67.182 14.046 C 64.606 18.786 62.514 22.836 60.333 28.049 Z M 60.328 28.495 C 60.269 28.496 60.211 28.484 60.157 28.459 C 59.181 28.044 55.396 26.289 53.765 25.224 C 53.568 25.093 53.506 24.832 53.625 24.627 C 54.788 22.649 55.453 21.164 56.226 19.445 C 56.683 18.428 57.156 17.374 57.779 16.122 C 58.56 14.577 59.347 13.035 60.141 11.496 C 60.676 10.453 61.138 9.549 61.331 9.176 C 62.187 7.472 63.288 6.444 64.601 6.112 C 66.216 5.702 67.659 6.481 68.376 6.979 C 71.096 8.874 68.885 12.244 67.94 13.682 C 67.784 13.921 67.644 14.129 67.571 14.264 C 64.851 19.269 62.861 23.158 60.738 28.225 C 60.669 28.39 60.507 28.497 60.328 28.495 Z M 54.606 24.705 C 56.112 25.614 58.864 26.912 60.089 27.462 C 62.156 22.576 64.191 18.604 66.782 13.838 C 66.875 13.672 67.01 13.458 67.187 13.188 C 68.578 11.065 69.622 8.937 67.857 7.706 C 67.265 7.296 66.081 6.652 64.809 6.974 C 63.76 7.239 62.857 8.116 62.119 9.575 C 61.927 9.949 61.465 10.852 60.93 11.901 C 60.138 13.436 59.352 14.975 58.573 16.517 C 58.038 17.605 57.526 18.705 57.036 19.814 C 56.336 21.382 55.666 22.867 54.606 24.71 Z M 63.968 27.088 C 63.65 27.092 63.339 27 63.075 26.823 C 62.353 26.33 62.052 25.307 62.337 24.336 C 62.577 23.526 63.127 22.883 63.609 22.316 L 68.132 17.021 C 69.035 15.967 69.965 14.876 70.572 13.635 C 71.232 12.301 71.402 10.945 71.055 9.825 C 70.665 8.558 69.529 7.602 68.35 7.555 C 68.105 7.544 67.915 7.338 67.924 7.093 C 67.928 6.975 67.98 6.864 68.066 6.784 C 68.153 6.704 68.268 6.663 68.386 6.668 C 69.954 6.73 71.403 7.924 71.906 9.57 C 72.316 10.91 72.125 12.498 71.366 14.035 C 70.707 15.375 69.741 16.507 68.802 17.602 L 64.279 22.898 C 63.854 23.397 63.371 23.962 63.184 24.591 C 63.034 25.1 63.116 25.78 63.568 26.091 C 63.765 26.226 64.077 26.237 64.331 26.117 C 64.435 26.07 64.606 25.962 64.627 25.775 C 64.638 25.657 64.696 25.549 64.788 25.475 C 64.88 25.401 64.998 25.367 65.115 25.38 C 65.359 25.406 65.535 25.624 65.51 25.868 C 65.463 26.325 65.167 26.714 64.7 26.928 C 64.467 27.035 64.213 27.089 63.957 27.088 L 63.967 27.088 Z M 46.455 49.513 C 46.303 49.513 46.161 49.436 46.079 49.307 C 45.997 49.179 45.986 49.018 46.05 48.88 L 47.28 46.232 C 47.383 46.008 47.648 45.911 47.872 46.014 C 48.096 46.117 48.193 46.382 48.09 46.606 L 46.86 49.253 C 46.787 49.411 46.629 49.512 46.455 49.513 Z M 44.477 21.257 L 44.461 21.257 C 34.877 20.975 25.287 20.947 15.701 21.174 C 15.456 21.176 15.254 20.983 15.245 20.738 C 15.239 20.491 15.434 20.287 15.681 20.281 C 25.282 20.054 34.887 20.082 44.487 20.364 C 44.732 20.368 44.927 20.571 44.923 20.816 C 44.919 21.061 44.716 21.256 44.471 21.252 Z M 32.093 30.63 C 26.486 30.63 20.873 30.494 15.307 30.22 C 15.189 30.214 15.078 30.161 15 30.073 C 14.921 29.986 14.88 29.87 14.887 29.752 C 14.891 29.634 14.943 29.522 15.031 29.443 C 15.12 29.364 15.236 29.324 15.354 29.332 C 24.686 29.79 34.033 29.865 43.371 29.555 L 43.386 29.555 C 43.626 29.556 43.822 29.745 43.833 29.985 C 43.84 30.231 43.648 30.438 43.402 30.448 C 39.648 30.572 35.873 30.634 32.099 30.634 L 32.094 30.629 Z M 31.704 39.996 C 26.102 39.996 20.494 39.897 14.928 39.706 C 14.682 39.695 14.491 39.489 14.498 39.243 C 14.511 38.999 14.715 38.808 14.96 38.813 C 24.025 39.129 33.225 39.186 42.29 38.983 L 42.301 38.983 C 42.543 38.985 42.741 39.178 42.748 39.42 C 42.751 39.665 42.557 39.868 42.312 39.876 C 38.792 39.954 35.25 39.991 31.709 39.991 Z M 24.077 48.693 C 20.899 48.693 17.727 48.641 14.575 48.537 C 14.412 48.537 14.262 48.447 14.184 48.304 C 14.106 48.161 14.112 47.987 14.2 47.849 C 14.287 47.712 14.443 47.633 14.606 47.644 C 22.093 47.888 29.689 47.841 37.176 47.504 C 37.42 47.483 37.628 47.685 37.644 47.929 C 37.654 48.175 37.464 48.384 37.218 48.397 C 32.844 48.594 28.466 48.693 24.088 48.693 Z M 14.258 56.714 C 14.014 56.715 13.815 56.518 13.812 56.274 C 13.812 56.029 14.009 55.827 14.253 55.827 L 42.976 55.681 C 43.22 55.681 43.423 55.879 43.423 56.123 C 43.424 56.368 43.226 56.567 42.981 56.569 Z" fill="transparent" height="68px" id="GIJmx7hWK" transform="translate(10 0)" width="72.117105481908px"><path d="M 0 0 L 72 0 L 72 68 L 0 68 Z" fill="transparent" height="68px" id="INDGubyUD" width="72px"></path><path d="M 0 0.815 L 0 58.235 L 45 57.29 L 45.524 0 Z" fill="var(--token-9fc38d7a-a3f6-4f38-9b69-d5eb5696eb0d, rgb(255, 255, 255))" height="58.23499999999999px" id="O0JYeQHnP" stroke-dasharray="" stroke-linecap="butt" stroke-linejoin="miter" stroke-miterlimit="10" stroke-width="0.2" stroke="var(--token-2f7038ac-bbf8-44f5-ae13-dbd500870086, rgb(29, 29, 29))" transform="translate(7.322 8.319)" width="45.524px"></path><path d="M 0.447 59.127 C 0.201 59.124 0.003 58.926 0 58.68 L 0 1.262 C 0 1.018 0.192 0.821 0.436 0.815 L 45.966 0 C 46.086 0.001 46.201 0.047 46.288 0.13 C 46.374 0.215 46.421 0.331 46.418 0.452 L 45.893 57.742 C 45.89 57.982 45.697 58.177 45.457 58.183 L 0.457 59.128 L 0.447 59.128 Z M 0.893 1.697 L 0.893 58.224 L 45.011 57.299 L 45.525 0.898 L 0.893 1.698 Z" fill="var(--token-2f7038ac-bbf8-44f5-ae13-dbd500870086, rgb(29, 29, 29))" height="59.127999999999986px" id="F2fXWffZ_" stroke-dasharray="" stroke-linecap="butt" stroke-linejoin="miter" stroke-miterlimit="10" stroke-width="0.2" stroke="var(--token-2f7038ac-bbf8-44f5-ae13-dbd500870086, rgb(29, 29, 29))" transform="translate(6.875 7.873)" width="46.41812510193502px"></path><path d="M 0.228 3.845 L 1.303 1.249 C 1.474 0.833 1.671 0.387 2.066 0.164 C 2.434 -0.049 2.896 -0.018 3.317 0.054 C 3.826 0.138 4.397 0.33 4.574 0.802 C 4.74 1.243 4.48 1.716 4.231 2.116 C 3.649 3.043 3.045 3.957 2.419 4.856 C 2.284 5.048 2.144 5.246 1.941 5.365 C 1.77 5.464 1.573 5.495 1.375 5.495 C 0.913 5.495 0.445 5.292 0.186 4.918 C -0.068 4.545 -0.068 3.999 0.223 3.838 L 0.228 3.844 Z" fill="var(--token-9fc38d7a-a3f6-4f38-9b69-d5eb5696eb0d, rgb(255, 255, 255))" height="5.495001077166094px" id="LZ5sSqI9r" stroke-dasharray="" stroke-linecap="butt" stroke-linejoin="miter" stroke-miterlimit="10" stroke-width="0.2" stroke="var(--token-2f7038ac-bbf8-44f5-ae13-dbd500870086, rgb(29, 29, 29))" transform="translate(65.526 2.444)" width="4.626468840459339px"></path><path d="M 1.819 6.394 C 1.186 6.394 0.594 6.098 0.267 5.621 C 0.034 5.283 -0.055 4.847 0.034 4.478 C 0.073 4.295 0.17 4.13 0.309 4.006 L 1.337 1.524 C 1.497 1.13 1.747 0.533 2.292 0.221 C 2.796 -0.065 3.382 -0.018 3.834 0.06 C 4.696 0.2 5.231 0.548 5.438 1.088 C 5.698 1.778 5.262 2.464 5.054 2.796 C 4.467 3.726 3.854 4.655 3.232 5.558 C 3.097 5.756 2.91 6.026 2.609 6.198 C 2.37 6.331 2.099 6.397 1.825 6.389 Z M 0.9 4.676 C 0.875 4.738 0.875 4.946 0.994 5.122 C 1.155 5.356 1.477 5.507 1.814 5.507 C 1.954 5.507 2.074 5.481 2.157 5.434 C 2.271 5.366 2.37 5.231 2.489 5.06 C 3.111 4.165 3.712 3.256 4.291 2.334 C 4.494 2.017 4.686 1.654 4.592 1.41 C 4.509 1.192 4.187 1.03 3.678 0.948 C 3.367 0.896 2.978 0.86 2.718 1.005 C 2.458 1.15 2.308 1.488 2.147 1.872 L 1.072 4.468 C 1.037 4.555 0.972 4.629 0.89 4.676 Z" fill="var(--token-2f7038ac-bbf8-44f5-ae13-dbd500870086, rgb(29, 29, 29))" height="6.3935084350479015px" id="OY2v6uDBP" stroke-dasharray="" stroke-linecap="butt" stroke-linejoin="miter" stroke-miterlimit="10" stroke-width="0.2" stroke="var(--token-2f7038ac-bbf8-44f5-ae13-dbd500870086, rgb(29, 29, 29))" transform="translate(65.087 1.992)" width="5.518309297055866px"></path><path d="M 1.826 0.005 C 1.193 0.155 0.476 0.358 0.191 0.935 C 0.045 1.22 0.04 1.547 0.03 1.863 C -0.007 3.489 -0.043 5.113 0.133 6.728 C 0.196 7.3 0.3 7.897 0.679 8.338 C 1.052 8.779 1.784 8.977 2.236 8.608 C 2.61 8.302 2.646 7.762 2.652 7.284 L 2.73 2.372 C 2.745 1.51 2.615 0.43 1.831 0 Z" fill="var(--token-9fc38d7a-a3f6-4f38-9b69-d5eb5696eb0d, rgb(255, 255, 255))" height="8.801199550995559px" id="EOTRcof33" stroke-dasharray="" stroke-linecap="butt" stroke-linejoin="miter" stroke-miterlimit="10" stroke-width="0.2" stroke="var(--token-2f7038ac-bbf8-44f5-ae13-dbd500870086, rgb(29, 29, 29))" transform="translate(14.987 3.688)" width="2.7315691930370143px"></path><path d="M 2.106 9.696 C 1.597 9.685 1.116 9.459 0.782 9.073 C 0.336 8.548 0.211 7.873 0.138 7.224 C -0.043 5.578 -0.007 3.912 0.029 2.297 C 0.039 1.965 0.045 1.555 0.237 1.176 C 0.642 0.371 1.639 0.137 2.168 0.012 C 2.276 -0.013 2.388 0.002 2.485 0.054 C 3.259 0.48 3.638 1.409 3.617 2.821 L 3.539 7.733 C 3.534 8.153 3.519 8.933 2.958 9.395 C 2.718 9.592 2.416 9.696 2.106 9.691 Z M 2.184 0.926 C 1.696 1.051 1.208 1.222 1.026 1.576 C 0.928 1.773 0.917 2.048 0.912 2.318 C 0.876 3.901 0.839 5.537 1.016 7.126 C 1.068 7.603 1.151 8.138 1.457 8.496 C 1.68 8.756 2.147 8.912 2.392 8.709 C 2.615 8.528 2.641 8.107 2.646 7.723 L 2.724 2.811 C 2.739 1.861 2.558 1.227 2.184 0.926 Z" fill="var(--token-2f7038ac-bbf8-44f5-ae13-dbd500870086, rgb(29, 29, 29))" height="9.696189542512771px" id="XjXFwNuxL" stroke-dasharray="" stroke-linecap="butt" stroke-linejoin="miter" stroke-miterlimit="10" stroke-width="0.2" stroke="var(--token-2f7038ac-bbf8-44f5-ae13-dbd500870086, rgb(29, 29, 29))" transform="translate(14.546 3.244)" width="3.618153036340371px"></path><path d="M 1.826 0.005 C 1.193 0.155 0.476 0.358 0.191 0.935 C 0.046 1.22 0.041 1.547 0.03 1.863 C -0.006 3.489 -0.043 5.113 0.134 6.728 C 0.196 7.3 0.3 7.897 0.679 8.338 C 1.059 8.779 1.785 8.977 2.237 8.608 C 2.61 8.302 2.647 7.762 2.652 7.284 L 2.73 2.372 C 2.745 1.51 2.616 0.43 1.832 0 Z" fill="var(--token-9fc38d7a-a3f6-4f38-9b69-d5eb5696eb0d, rgb(255, 255, 255))" height="8.801199550995559px" id="UvHoWXSok" stroke-dasharray="" stroke-linecap="butt" stroke-linejoin="miter" stroke-miterlimit="10" stroke-width="0.2" stroke="var(--token-2f7038ac-bbf8-44f5-ae13-dbd500870086, rgb(29, 29, 29))" transform="translate(29.052 3.688)" width="2.7310783937136556px"></path><path d="M 2.106 9.696 C 1.596 9.685 1.115 9.459 0.782 9.073 C 0.336 8.548 0.212 7.873 0.138 7.224 C -0.043 5.574 -0.007 3.912 0.03 2.297 C 0.035 1.97 0.045 1.56 0.237 1.176 C 0.642 0.371 1.639 0.137 2.169 0.012 C 2.276 -0.013 2.388 0.002 2.485 0.054 C 3.259 0.48 3.638 1.409 3.617 2.821 L 3.539 7.733 C 3.534 8.153 3.519 8.933 2.958 9.395 C 2.718 9.591 2.416 9.695 2.106 9.691 Z M 2.189 0.926 C 1.701 1.051 1.213 1.222 1.032 1.576 C 0.932 1.778 0.922 2.048 0.917 2.313 C 0.881 3.896 0.845 5.532 1.021 7.12 C 1.073 7.598 1.156 8.133 1.463 8.491 C 1.686 8.751 2.153 8.907 2.397 8.704 C 2.62 8.522 2.647 8.102 2.652 7.718 L 2.729 2.806 C 2.745 1.856 2.563 1.222 2.189 0.921 Z" fill="var(--token-2f7038ac-bbf8-44f5-ae13-dbd500870086, rgb(29, 29, 29))" height="9.695963437503124px" id="gma_M2Dv_" stroke-dasharray="" stroke-linecap="butt" stroke-linejoin="miter" stroke-miterlimit="10" stroke-width="0.2" stroke="var(--token-2f7038ac-bbf8-44f5-ae13-dbd500870086, rgb(29, 29, 29))" transform="translate(28.606 3.244)" width="3.61794587019929px"></path><path d="M 1.827 0.005 C 1.193 0.155 0.477 0.358 0.191 0.935 C 0.046 1.22 0.041 1.547 0.031 1.863 C -0.006 3.489 -0.043 5.113 0.134 6.728 C 0.196 7.3 0.3 7.897 0.679 8.338 C 1.059 8.779 1.785 8.977 2.237 8.608 C 2.611 8.302 2.647 7.762 2.652 7.284 L 2.73 2.372 C 2.746 1.51 2.616 0.43 1.832 0 Z" fill="var(--token-9fc38d7a-a3f6-4f38-9b69-d5eb5696eb0d, rgb(255, 255, 255))" height="8.801199550995559px" id="X5PPZiIuO" stroke-dasharray="" stroke-linecap="butt" stroke-linejoin="miter" stroke-miterlimit="10" stroke-width="0.2" stroke="var(--token-2f7038ac-bbf8-44f5-ae13-dbd500870086, rgb(29, 29, 29))" transform="translate(43.112 3.688)" width="2.7310114463094166px"></path><path d="M 2.107 9.696 C 1.608 9.696 1.099 9.446 0.783 9.073 C 0.336 8.548 0.212 7.873 0.139 7.224 C -0.043 5.578 -0.006 3.912 0.029 2.297 C 0.04 1.965 0.046 1.555 0.238 1.176 C 0.643 0.371 1.639 0.137 2.174 0.012 C 2.281 -0.013 2.394 0.002 2.491 0.054 C 3.275 0.485 3.644 1.388 3.623 2.821 L 3.545 7.733 C 3.54 8.153 3.525 8.933 2.969 9.389 C 2.728 9.585 2.427 9.69 2.117 9.685 L 2.107 9.695 Z M 2.185 0.926 C 1.697 1.051 1.208 1.222 1.027 1.576 C 0.928 1.773 0.917 2.048 0.913 2.318 C 0.876 3.901 0.84 5.537 1.016 7.126 C 1.068 7.603 1.151 8.138 1.458 8.496 C 1.681 8.756 2.148 8.912 2.392 8.709 C 2.616 8.528 2.642 8.107 2.647 7.723 L 2.725 2.811 C 2.74 1.861 2.559 1.227 2.185 0.926 Z" fill="var(--token-2f7038ac-bbf8-44f5-ae13-dbd500870086, rgb(29, 29, 29))" height="9.696128141598791px" id="n21gp_Unz" stroke-dasharray="" stroke-linecap="butt" stroke-linejoin="miter" stroke-miterlimit="10" stroke-width="0.2" stroke="var(--token-2f7038ac-bbf8-44f5-ae13-dbd500870086, rgb(29, 29, 29))" transform="translate(42.671 3.244)" width="3.623676856335366px"></path><path d="M 8.57 0.006 C 5.906 5.271 3.84 10.089 0.864 15.971 C 0.6 16.756 0.257 17.524 0.091 18.334 C -0.075 19.149 -0.039 20.037 0.402 20.744 C 0.844 21.449 1.778 21.896 2.568 21.61 C 3.227 21.371 3.632 20.727 3.98 20.13 C 7.438 14.18 10.48 7.861 13.653 1.76 L 8.57 0 Z" fill="var(--token-9fc38d7a-a3f6-4f38-9b69-d5eb5696eb0d, rgb(255, 255, 255))" height="21.697604060992468px" id="zpMK5Iyvq" stroke-dasharray="" stroke-linecap="butt" stroke-linejoin="miter" stroke-miterlimit="10" stroke-width="0.2" stroke="var(--token-2f7038ac-bbf8-44f5-ae13-dbd500870086, rgb(29, 29, 29))" transform="translate(46.556 24.881)" width="13.653361571570976px"></path><path d="M 2.506 22.586 C 1.726 22.586 0.927 22.15 0.47 21.423 C -0.106 20.504 -0.049 19.429 0.102 18.692 C 0.226 18.085 0.439 17.513 0.642 16.958 C 0.725 16.729 0.813 16.501 0.891 16.272 C 0.896 16.252 0.907 16.236 0.917 16.215 C 2.443 13.199 3.737 10.452 4.982 7.794 C 6.187 5.234 7.324 2.809 8.622 0.244 C 8.722 0.044 8.956 -0.05 9.167 0.026 L 14.25 1.786 C 14.373 1.826 14.472 1.919 14.521 2.039 C 14.569 2.16 14.561 2.295 14.5 2.409 C 13.596 4.149 12.688 5.935 11.805 7.664 C 9.588 12.025 7.293 16.532 4.816 20.794 C 4.5 21.34 4.022 22.165 3.17 22.472 C 2.958 22.549 2.735 22.587 2.51 22.586 Z M 1.722 16.584 C 1.644 16.812 1.561 17.036 1.478 17.264 C 1.275 17.809 1.083 18.329 0.974 18.869 C 0.854 19.45 0.803 20.281 1.224 20.951 C 1.534 21.449 2.251 21.854 2.864 21.636 C 3.368 21.454 3.705 20.925 4.043 20.354 C 6.509 16.112 8.799 11.615 11.01 7.264 C 11.815 5.686 12.64 4.055 13.472 2.461 L 9.24 0.997 C 8.02 3.422 6.935 5.732 5.787 8.173 C 4.541 10.826 3.253 13.567 1.727 16.589 Z" fill="var(--token-2f7038ac-bbf8-44f5-ae13-dbd500870086, rgb(29, 29, 29))" height="22.58623630074469px" id="r4QQC4JXs" stroke-dasharray="" stroke-linecap="butt" stroke-linejoin="miter" stroke-miterlimit="10" stroke-width="0.2" stroke="var(--token-2f7038ac-bbf8-44f5-ae13-dbd500870086, rgb(29, 29, 29))" transform="translate(46.109 24.44)" width="14.55213911202042px"></path><path d="M 6.319 21.61 C 5.312 21.184 1.579 19.445 0 18.417 C 1.87 15.239 2.508 13.235 4.17 9.881 C 4.813 8.578 7.217 3.925 7.721 2.934 C 9.72 -1.023 12.56 -0.181 14.113 0.899 C 16.885 2.825 13.739 6.563 13.173 7.607 C 10.597 12.347 8.505 16.397 6.324 21.61 Z" fill="var(--token-cff1c173-a71c-4968-b687-34c315e13ef5, rgb(255, 231, 169))" height="21.609897256596703px" id="mNSiOI6dU" stroke-dasharray="" stroke-linecap="butt" stroke-linejoin="miter" stroke-miterlimit="10" stroke-width="0.2" stroke="var(--token-2f7038ac-bbf8-44f5-ae13-dbd500870086, rgb(29, 29, 29))" transform="translate(54.009 6.439)" width="15.239429438083818px"></path><path d="M 6.763 22.498 C 6.704 22.499 6.646 22.487 6.592 22.462 C 5.616 22.047 1.831 20.292 0.2 19.227 C 0.003 19.097 -0.058 18.835 0.06 18.63 C 1.223 16.652 1.888 15.167 2.661 13.448 C 3.118 12.431 3.591 11.377 4.214 10.125 C 4.995 8.58 5.782 7.038 6.576 5.499 C 7.111 4.456 7.573 3.552 7.766 3.179 C 8.622 1.475 9.723 0.447 11.036 0.115 C 12.651 -0.295 14.094 0.484 14.811 0.982 C 17.531 2.877 15.32 6.247 14.375 7.685 C 14.219 7.924 14.079 8.132 14.006 8.267 C 11.286 13.272 9.296 17.161 7.173 22.228 C 7.104 22.393 6.942 22.5 6.763 22.498 Z M 1.041 18.708 C 2.547 19.617 5.299 20.915 6.524 21.465 C 8.591 16.579 10.626 12.607 13.217 7.841 C 13.31 7.675 13.445 7.461 13.622 7.191 C 15.013 5.068 16.057 2.94 14.292 1.709 C 13.7 1.299 12.516 0.655 11.244 0.977 C 10.195 1.242 9.292 2.119 8.554 3.578 C 8.362 3.952 7.9 4.855 7.365 5.904 C 6.573 7.439 5.787 8.978 5.008 10.52 C 4.474 11.609 3.961 12.708 3.471 13.817 C 2.771 15.385 2.101 16.87 1.041 18.713 Z" fill="var(--token-2f7038ac-bbf8-44f5-ae13-dbd500870086, rgb(29, 29, 29))" height="22.498177235194856px" id="sJ1mjlqmw" stroke-dasharray="" stroke-linecap="butt" stroke-linejoin="miter" stroke-miterlimit="10" stroke-width="0.2" stroke="var(--token-2f7038ac-bbf8-44f5-ae13-dbd500870086, rgb(29, 29, 29))" transform="translate(53.565 5.997)" width="16.121122380308773px"></path><path d="M 50.156 20.42 C 49.838 20.425 49.527 20.332 49.263 20.155 C 48.541 19.662 48.24 18.639 48.525 17.668 C 48.765 16.858 49.315 16.215 49.797 15.648 L 54.32 10.353 C 55.223 9.299 56.153 8.208 56.76 6.967 C 57.42 5.633 57.59 4.277 57.243 3.157 C 56.853 1.89 55.717 0.934 54.538 0.887 C 54.293 0.877 54.103 0.67 54.112 0.425 C 54.116 0.308 54.168 0.197 54.254 0.117 C 54.341 0.037 54.456 -0.005 54.574 0 C 56.142 0.062 57.591 1.256 58.094 2.902 C 58.504 4.242 58.313 5.83 57.554 7.367 C 56.895 8.707 55.929 9.839 54.99 10.934 L 50.467 16.23 C 50.042 16.729 49.559 17.294 49.372 17.923 C 49.222 18.432 49.304 19.112 49.756 19.423 C 49.953 19.558 50.265 19.569 50.519 19.449 C 50.623 19.402 50.794 19.294 50.815 19.107 C 50.826 18.99 50.884 18.882 50.976 18.808 C 51.068 18.733 51.186 18.699 51.303 18.712 C 51.547 18.738 51.723 18.956 51.698 19.2 C 51.651 19.657 51.355 20.046 50.888 20.26 C 50.655 20.367 50.401 20.422 50.145 20.42 L 50.155 20.42 Z M 32.643 42.845 C 32.491 42.845 32.349 42.768 32.267 42.64 C 32.185 42.512 32.174 42.351 32.238 42.212 L 33.468 39.564 C 33.571 39.341 33.836 39.243 34.06 39.346 C 34.284 39.45 34.381 39.715 34.278 39.938 L 33.048 42.585 C 32.975 42.743 32.817 42.844 32.643 42.845 Z M 30.665 14.589 L 30.649 14.589 C 21.065 14.307 11.475 14.28 1.889 14.506 C 1.644 14.508 1.442 14.315 1.433 14.07 C 1.427 13.824 1.622 13.619 1.869 13.613 C 11.47 13.387 21.075 13.414 30.675 13.696 C 30.92 13.701 31.115 13.903 31.111 14.148 C 31.107 14.394 30.904 14.589 30.659 14.584 Z M 18.281 23.962 C 12.674 23.962 7.061 23.826 1.495 23.552 C 1.377 23.547 1.266 23.494 1.188 23.406 C 1.109 23.318 1.068 23.202 1.075 23.084 C 1.079 22.966 1.131 22.855 1.219 22.775 C 1.308 22.696 1.424 22.656 1.542 22.664 C 10.874 23.123 20.221 23.197 29.559 22.887 L 29.574 22.887 C 29.814 22.889 30.01 23.078 30.021 23.317 C 30.028 23.564 29.836 23.77 29.59 23.78 C 25.836 23.904 22.061 23.966 18.287 23.966 L 18.282 23.961 Z M 17.892 33.328 C 12.29 33.328 6.682 33.229 1.116 33.038 C 0.87 33.028 0.679 32.821 0.686 32.575 C 0.699 32.331 0.903 32.141 1.148 32.145 C 10.213 32.461 19.413 32.518 28.478 32.315 L 28.489 32.315 C 28.731 32.317 28.929 32.51 28.936 32.752 C 28.939 32.998 28.745 33.201 28.5 33.208 C 24.98 33.286 21.438 33.323 17.897 33.323 Z M 10.265 42.025 C 7.087 42.025 3.915 41.973 0.763 41.869 C 0.6 41.869 0.45 41.78 0.372 41.637 C 0.294 41.493 0.3 41.319 0.388 41.182 C 0.475 41.044 0.631 40.966 0.794 40.976 C 8.281 41.22 15.877 41.173 23.364 40.836 C 23.608 40.815 23.816 41.017 23.832 41.261 C 23.842 41.508 23.652 41.717 23.406 41.729 C 19.032 41.927 14.654 42.026 10.276 42.025 Z M 0.446 50.046 C 0.202 50.047 0.003 49.851 0 49.606 C 0 49.361 0.197 49.159 0.441 49.159 L 29.164 49.013 C 29.408 49.013 29.611 49.211 29.611 49.455 C 29.612 49.7 29.414 49.9 29.169 49.901 Z" fill="var(--token-2f7038ac-bbf8-44f5-ae13-dbd500870086, rgb(29, 29, 29))" height="50.04646709417611px" id="zYf8SK2z9" stroke-dasharray="" stroke-linecap="butt" stroke-linejoin="miter" stroke-miterlimit="10" stroke-width="0.2" stroke="var(--token-2f7038ac-bbf8-44f5-ae13-dbd500870086, rgb(29, 29, 29))" transform="translate(13.812 6.668)" width="58.305105207249795px"></path></g></svg>