<svg display="block" role="presentation" viewBox="0 0 92 68" xmlns="http://www.w3.org/2000/svg" id="1442230229"><g d="M 0 0 L 92 0 L 92 68 L 0 68 Z M 78.275 66.465 C 78.275 49.008 78.478 33.803 78.275 17.41 C 53.815 17.41 29.225 18.12 4.58 17.86 C 4.343 34.563 4.58 50.28 4.58 66.522 C 29.214 66.522 53.765 66.465 78.275 66.465 Z M 4.58 67 C 4.454 67 4.334 66.951 4.245 66.862 C 4.156 66.773 4.107 66.653 4.107 66.527 C 4.107 61.111 4.079 55.667 4.057 50.399 C 4 39.877 3.949 28.995 4.107 17.855 C 4.107 17.595 4.321 17.37 4.586 17.387 C 18.816 17.539 33.256 17.359 47.223 17.19 C 57.413 17.067 67.945 16.937 78.275 16.937 C 78.4 16.936 78.52 16.985 78.608 17.073 C 78.697 17.16 78.747 17.279 78.748 17.404 C 78.883 28.218 78.838 38.447 78.793 49.278 C 78.771 54.807 78.748 60.52 78.748 66.465 C 78.748 66.591 78.699 66.711 78.61 66.8 C 78.521 66.889 78.401 66.938 78.275 66.938 C 66.037 66.938 53.573 66.955 41.52 66.966 C 29.423 66.983 16.914 66.994 4.58 66.994 Z M 5.047 18.344 C 4.895 29.311 4.951 40.024 5.002 50.393 C 5.025 55.505 5.052 60.791 5.052 66.049 C 17.229 66.049 29.575 66.032 41.515 66.02 C 53.41 66.004 65.71 65.992 77.797 65.992 C 77.797 60.216 77.819 54.66 77.842 49.278 C 77.887 38.611 77.926 28.523 77.802 17.888 C 67.624 17.888 57.26 18.018 47.229 18.142 C 33.414 18.311 19.138 18.485 5.047 18.344 Z M 4.737 12.8 C 4.653 14.837 4.676 16.768 4.58 19.104 C 29.248 19.155 53.686 19.127 78.275 19.048 C 78.275 16.943 78.213 14.19 78.213 12.478 Z M 29.513 19.605 C 20.95 19.605 12.663 19.595 4.58 19.577 C 4.45 19.579 4.326 19.526 4.236 19.432 C 4.146 19.338 4.1 19.212 4.107 19.082 C 4.157 17.877 4.174 16.785 4.191 15.722 C 4.208 14.713 4.225 13.768 4.265 12.777 C 4.276 12.523 4.483 12.323 4.737 12.321 L 78.213 11.994 C 78.477 11.996 78.69 12.209 78.692 12.473 C 78.692 13.283 78.703 14.325 78.72 15.423 C 78.737 16.656 78.754 17.933 78.754 19.043 C 78.754 19.168 78.704 19.289 78.615 19.377 C 78.527 19.466 78.406 19.515 78.281 19.515 C 60.925 19.572 44.785 19.6 29.518 19.6 Z M 5.075 18.625 C 27.3 18.671 51.102 18.655 77.802 18.57 C 77.802 17.584 77.785 16.492 77.769 15.434 C 77.757 14.606 77.748 13.779 77.74 12.951 L 5.193 13.272 C 5.165 14.089 5.154 14.894 5.137 15.738 C 5.12 16.656 5.109 17.607 5.07 18.626 L 5.075 18.626 Z M 56.247 16.369 C 56.122 16.37 56.002 16.321 55.913 16.233 C 55.825 16.145 55.775 16.026 55.774 15.901 C 55.774 15.637 55.977 15.423 56.242 15.417 L 59.636 15.355 L 59.647 15.355 C 59.895 15.373 60.088 15.579 60.089 15.828 C 60.091 16.077 59.901 16.285 59.653 16.306 L 56.258 16.369 L 56.248 16.369 Z M 63.751 16.43 C 63.492 16.431 63.28 16.222 63.278 15.963 C 63.278 15.699 63.481 15.485 63.746 15.479 L 67.14 15.417 L 67.151 15.417 C 67.276 15.416 67.396 15.465 67.484 15.553 C 67.573 15.64 67.623 15.759 67.624 15.884 C 67.628 16.146 67.419 16.363 67.157 16.368 L 63.763 16.43 Z M 71.013 16.306 C 70.888 16.307 70.768 16.258 70.68 16.17 C 70.591 16.083 70.541 15.964 70.54 15.839 C 70.54 15.575 70.743 15.361 71.008 15.355 L 74.402 15.293 L 74.413 15.293 C 74.661 15.311 74.854 15.517 74.855 15.766 C 74.857 16.015 74.667 16.223 74.419 16.244 L 71.025 16.307 L 71.013 16.307 Z M 41.42 36.736 C 41.294 36.737 41.174 36.687 41.085 36.598 C 40.996 36.509 40.946 36.389 40.946 36.263 C 40.947 36.001 41.157 35.789 41.419 35.785 L 45.867 35.773 C 46.131 35.773 46.339 35.987 46.339 36.246 C 46.338 36.508 46.129 36.721 45.867 36.725 L 41.419 36.735 Z M 41.42 46.036 C 41.294 46.037 41.174 45.987 41.085 45.898 C 40.996 45.809 40.946 45.689 40.946 45.563 C 40.947 45.301 41.157 45.088 41.419 45.084 L 45.867 45.074 C 45.992 45.073 46.113 45.123 46.201 45.212 C 46.29 45.3 46.34 45.421 46.339 45.546 C 46.338 45.808 46.129 46.021 45.867 46.025 L 41.419 46.035 Z M 13.914 55.172 C 13.653 55.172 13.441 54.96 13.441 54.7 C 13.441 54.439 13.653 54.227 13.914 54.227 L 48.45 54.215 C 48.711 54.215 48.923 54.427 48.923 54.688 C 48.923 54.949 48.711 55.161 48.45 55.161 Z M 90.672 47.654 C 93.278 36.794 86.586 25.879 75.726 23.274 C 64.866 20.669 53.951 27.36 51.346 38.22 C 48.741 49.08 55.433 59.995 66.292 62.6 C 77.152 65.205 88.067 58.514 90.672 47.654 Z M 71.013 63.64 C 59.603 63.64 50.319 54.356 50.319 42.94 C 50.319 31.523 59.602 22.246 71.013 22.246 C 82.424 22.246 91.713 31.529 91.713 42.94 C 91.713 54.35 82.43 63.64 71.013 63.64 Z M 71.013 23.197 C 60.126 23.197 51.265 32.057 51.265 42.945 C 51.265 53.833 60.125 62.693 71.013 62.693 C 81.901 62.693 90.761 53.833 90.761 42.945 C 90.761 32.058 81.901 23.197 71.013 23.197 Z M 70.732 63.487 C 70.606 63.487 70.485 63.436 70.396 63.347 C 70.307 63.257 70.258 63.135 70.259 63.009 L 70.507 23.119 C 70.509 22.858 70.722 22.647 70.983 22.649 C 71.244 22.651 71.455 22.864 71.453 23.125 L 71.205 63.015 C 71.203 63.275 70.992 63.485 70.732 63.487 Z M 71.002 35.148 C 65.311 35.148 59.715 33.685 55.245 31.022 C 55.025 30.884 54.956 30.596 55.09 30.374 C 55.223 30.151 55.51 30.077 55.735 30.206 C 60.058 32.778 65.485 34.197 71.008 34.197 L 71.025 34.197 C 76.553 34.197 81.979 32.773 86.308 30.189 C 86.533 30.06 86.82 30.134 86.953 30.357 C 87.087 30.579 87.018 30.867 86.798 31.005 C 82.328 33.673 76.728 35.143 71.03 35.148 Z M 50.984 43.677 C 50.723 43.68 50.509 43.471 50.505 43.21 C 50.502 42.948 50.712 42.734 50.973 42.731 C 64.033 42.427 77.116 42.236 90.975 42.157 C 91.235 42.157 91.448 42.366 91.448 42.63 C 91.45 42.756 91.4 42.878 91.312 42.968 C 91.223 43.058 91.101 43.109 90.975 43.109 C 77.121 43.187 64.044 43.379 50.989 43.683 L 50.978 43.683 Z M 84.997 58.026 C 84.879 58.027 84.764 57.983 84.677 57.903 C 76.479 50.416 64.843 50.027 56.377 56.968 C 56.173 57.135 55.874 57.105 55.707 56.901 C 55.54 56.697 55.57 56.398 55.774 56.231 C 64.618 48.986 76.767 49.385 85.318 57.199 C 85.462 57.331 85.51 57.538 85.439 57.72 C 85.368 57.902 85.192 58.022 84.997 58.021 Z M 70.732 63.487 C 70.68 63.486 70.629 63.476 70.58 63.459 C 68.221 62.654 66.025 60.909 64.05 58.279 C 60.008 52.887 58.302 45.704 59.495 39.066 C 60.666 32.547 64.978 26.13 70.749 22.319 C 70.907 22.212 71.114 22.212 71.272 22.319 C 76.052 25.46 79.12 29.688 80.932 35.616 C 83.342 43.48 82.154 50.776 77.307 57.914 C 75.382 60.751 73.22 62.614 70.889 63.454 C 70.836 63.472 70.781 63.481 70.726 63.481 Z M 71.013 23.293 C 65.586 26.98 61.544 33.065 60.43 39.235 C 59.281 45.614 60.92 52.521 64.81 57.711 C 66.617 60.126 68.61 61.736 70.726 62.508 C 72.809 61.708 74.756 59.986 76.525 57.385 C 81.203 50.5 82.351 43.469 80.032 35.897 C 78.32 30.301 75.449 26.287 71.019 23.293 Z M 32.587 45.53 C 32.587 38.065 32.637 31.562 32.587 24.548 C 26.4 24.548 20.179 24.852 13.942 24.74 C 13.88 31.883 13.942 38.605 13.942 45.552 C 20.174 45.552 26.389 45.529 32.587 45.529 Z M 13.942 46.03 C 13.816 46.03 13.696 45.981 13.607 45.892 C 13.518 45.803 13.469 45.683 13.469 45.557 C 13.469 43.244 13.463 40.952 13.458 38.661 C 13.446 34.163 13.429 29.508 13.468 24.745 C 13.468 24.615 13.519 24.497 13.615 24.407 C 13.707 24.321 13.827 24.273 13.953 24.272 C 17.544 24.334 21.198 24.261 24.728 24.188 C 27.306 24.138 29.974 24.081 32.592 24.081 C 32.852 24.081 33.065 24.289 33.065 24.554 C 33.099 29.176 33.088 33.55 33.076 38.183 C 33.069 40.634 33.066 43.084 33.065 45.535 C 33.065 45.661 33.016 45.781 32.927 45.87 C 32.838 45.959 32.718 46.008 32.592 46.008 C 29.496 46.008 26.394 46.013 23.292 46.018 C 20.179 46.025 17.066 46.03 13.947 46.03 Z M 14.415 25.224 C 14.381 29.817 14.392 34.304 14.403 38.65 C 14.409 40.783 14.414 42.917 14.414 45.073 C 17.376 45.073 20.331 45.068 23.287 45.062 C 26.231 45.056 29.175 45.051 32.114 45.051 C 32.114 42.681 32.119 40.401 32.124 38.171 C 32.136 33.701 32.147 29.468 32.119 25.021 C 29.661 25.034 27.203 25.07 24.745 25.128 C 21.361 25.195 17.871 25.268 14.415 25.218 Z M 17.348 43.717 C 17.313 43.717 17.279 43.705 17.252 43.683 C 16.678 43.261 16.137 42.783 15.642 42.27 C 15.58 42.208 15.586 42.106 15.642 42.045 C 15.705 41.985 15.804 41.985 15.867 42.045 C 16.351 42.545 16.88 43.007 17.437 43.424 C 17.506 43.476 17.521 43.574 17.471 43.644 C 17.44 43.684 17.392 43.706 17.341 43.705 L 17.347 43.717 Z M 21.108 44.257 C 21.067 44.259 21.028 44.243 21.001 44.212 C 19.157 42.494 17.279 40.814 15.366 39.173 C 15.307 39.114 15.303 39.019 15.358 38.956 C 15.412 38.892 15.507 38.881 15.574 38.931 C 17.489 40.574 19.369 42.255 21.215 43.975 C 21.279 44.036 21.282 44.137 21.221 44.201 C 21.19 44.233 21.147 44.252 21.102 44.251 Z M 24.885 44.24 C 24.848 44.24 24.812 44.226 24.785 44.2 L 15.597 36.432 C 15.53 36.374 15.523 36.274 15.58 36.207 C 15.638 36.14 15.738 36.133 15.805 36.19 L 24.992 43.958 C 25.043 44.001 25.062 44.071 25.039 44.134 C 25.017 44.197 24.958 44.239 24.891 44.24 Z M 28.381 44.065 C 28.342 44.066 28.304 44.052 28.274 44.026 C 24.187 40.367 20.005 36.816 15.732 33.376 C 15.663 33.32 15.653 33.219 15.708 33.151 C 15.764 33.082 15.865 33.071 15.934 33.127 C 20.212 36.57 24.398 40.125 28.488 43.79 C 28.52 43.818 28.54 43.858 28.542 43.9 C 28.544 43.943 28.529 43.984 28.499 44.015 C 28.468 44.047 28.426 44.065 28.381 44.065 Z M 31.095 42.934 C 31.058 42.933 31.023 42.921 30.993 42.9 C 25.795 38.73 20.685 34.452 15.664 30.07 C 15.605 30.011 15.601 29.916 15.656 29.853 C 15.71 29.789 15.805 29.778 15.872 29.828 C 20.89 34.207 25.997 38.483 31.19 42.654 C 31.258 42.71 31.269 42.811 31.213 42.879 C 31.183 42.917 31.137 42.939 31.089 42.941 L 31.095 42.935 Z M 30.982 39.472 C 30.946 39.472 30.91 39.46 30.881 39.438 L 15.704 27.036 C 15.636 26.98 15.625 26.879 15.681 26.811 C 15.737 26.743 15.838 26.733 15.906 26.789 L 31.083 39.19 C 31.116 39.217 31.137 39.256 31.142 39.298 C 31.146 39.341 31.133 39.383 31.106 39.416 C 31.075 39.452 31.03 39.473 30.982 39.472 Z M 31.01 35.914 C 30.972 35.915 30.936 35.901 30.909 35.874 C 27.223 32.698 23.481 29.589 19.684 26.547 C 19.619 26.49 19.61 26.392 19.665 26.325 C 19.719 26.258 19.817 26.246 19.886 26.299 C 23.687 29.343 27.431 32.457 31.117 35.639 C 31.183 35.696 31.191 35.796 31.134 35.863 C 31.104 35.897 31.061 35.918 31.016 35.92 Z M 30.976 31.962 C 30.944 31.961 30.913 31.952 30.886 31.934 C 28.638 30.312 26.447 28.612 24.316 26.839 C 24.248 26.783 24.238 26.682 24.294 26.614 C 24.35 26.546 24.451 26.536 24.519 26.592 C 26.646 28.358 28.832 30.054 31.072 31.675 C 31.145 31.725 31.157 31.827 31.106 31.895 C 31.077 31.938 31.028 31.964 30.976 31.962 Z M 31.1 28.843 C 31.062 28.843 31.026 28.829 30.999 28.803 C 30.215 28.133 29.402 27.498 28.561 26.901 C 28.526 26.877 28.502 26.841 28.495 26.799 C 28.488 26.758 28.497 26.715 28.522 26.681 C 28.546 26.646 28.582 26.622 28.624 26.615 C 28.665 26.608 28.708 26.617 28.742 26.642 C 29.586 27.244 30.413 27.892 31.202 28.562 C 31.252 28.605 31.27 28.675 31.248 28.738 C 31.225 28.8 31.166 28.842 31.1 28.843 Z" fill="transparent" height="68px" id="c9C9SPyvc" width="92px"><path d="M 0 0 L 92 0 L 92 68 L 0 68 Z" fill="transparent" height="68px" id="v_vLz1bef" width="92px"></path><path d="M 73.8 49.055 C 73.8 31.598 74.003 16.393 73.8 0 C 49.34 0 24.75 0.71 0.105 0.45 C -0.132 17.153 0.105 32.87 0.105 49.112 C 24.739 49.112 49.29 49.055 73.8 49.055 Z" fill="var(--token-9fc38d7a-a3f6-4f38-9b69-d5eb5696eb0d, rgb(255, 255, 255))" height="49.111999999999995px" id="aRuf5jegR" transform="translate(4.475 17.41)" width="73.89055555555552px"></path><path d="M 0.579 50.063 C 0.453 50.063 0.333 50.014 0.244 49.925 C 0.155 49.836 0.105 49.716 0.106 49.59 C 0.106 44.174 0.078 38.73 0.056 33.462 C -0.001 22.94 -0.052 12.058 0.106 0.918 C 0.106 0.658 0.32 0.433 0.585 0.45 C 14.815 0.602 29.255 0.422 43.222 0.253 C 53.412 0.13 63.944 0 74.274 0 C 74.398 -0.001 74.518 0.048 74.607 0.136 C 74.696 0.223 74.746 0.342 74.747 0.467 C 74.882 11.281 74.837 21.51 74.792 32.341 C 74.77 37.87 74.747 43.583 74.747 49.528 C 74.747 49.654 74.697 49.774 74.608 49.863 C 74.52 49.952 74.399 50.001 74.274 50.001 C 62.036 50.001 49.572 50.018 37.519 50.029 C 25.422 50.046 12.913 50.057 0.579 50.057 Z M 1.046 1.407 C 0.894 12.374 0.95 23.087 1.001 33.456 C 1.024 38.568 1.051 43.854 1.051 49.112 C 13.228 49.112 25.574 49.095 37.514 49.083 C 49.409 49.067 61.709 49.055 73.796 49.055 C 73.796 43.279 73.818 37.723 73.841 32.341 C 73.886 21.674 73.925 11.586 73.801 0.951 C 63.623 0.951 53.259 1.081 43.228 1.205 C 29.413 1.374 15.137 1.548 1.046 1.407 Z" fill="var(--token-2f7038ac-bbf8-44f5-ae13-dbd500870086, rgb(29, 29, 29))" height="50.06301071181382px" id="uwZHrJGjZ" transform="translate(4.001 16.937)" width="74.83662543644888px"></path><path d="M 0.157 0.322 C 0.073 2.359 0.096 4.29 0 6.626 C 24.668 6.677 49.106 6.649 73.695 6.57 C 73.695 4.465 73.633 1.712 73.633 0 Z" fill="var(--token-66f52e20-8042-4310-8c53-1955892beb17, rgb(227, 242, 255))" height="6.651726196454019px" id="XbTghFjqv" transform="translate(4.58 12.478)" width="73.69499999999996px"></path><path d="M 25.407 7.611 C 16.844 7.611 8.557 7.601 0.474 7.583 C 0.344 7.585 0.219 7.532 0.13 7.438 C 0.04 7.344 -0.007 7.218 0.001 7.088 C 0.051 5.883 0.068 4.791 0.085 3.728 C 0.102 2.719 0.119 1.774 0.159 0.783 C 0.169 0.529 0.377 0.329 0.631 0.327 L 74.107 0 C 74.371 0.002 74.584 0.215 74.586 0.479 C 74.586 1.289 74.597 2.331 74.614 3.429 C 74.631 4.662 74.648 5.939 74.648 7.049 C 74.648 7.174 74.598 7.295 74.509 7.383 C 74.42 7.472 74.3 7.521 74.175 7.521 C 56.819 7.578 40.679 7.606 25.412 7.606 Z M 0.969 6.631 C 23.194 6.677 46.996 6.661 73.696 6.576 C 73.696 5.59 73.679 4.498 73.663 3.44 C 73.651 2.612 73.641 1.785 73.634 0.957 L 1.087 1.278 C 1.059 2.095 1.048 2.9 1.031 3.744 C 1.014 4.662 1.003 5.613 0.964 6.632 L 0.969 6.632 Z" fill="var(--token-2f7038ac-bbf8-44f5-ae13-dbd500870086, rgb(29, 29, 29))" height="7.611000000000004px" id="VqeJv7V0h" transform="translate(4.106 11.994)" width="74.64778242937282px"></path><path d="M 42.806 1.076 C 42.681 1.077 42.561 1.028 42.472 0.94 C 42.383 0.852 42.333 0.733 42.333 0.608 C 42.333 0.344 42.536 0.13 42.801 0.124 L 46.195 0.062 L 46.206 0.062 C 46.454 0.08 46.646 0.286 46.648 0.535 C 46.649 0.784 46.459 0.992 46.212 1.013 L 42.817 1.076 L 42.807 1.076 Z M 50.309 1.137 C 50.05 1.138 49.839 0.929 49.836 0.67 C 49.836 0.406 50.039 0.192 50.304 0.186 L 53.698 0.124 L 53.709 0.124 C 53.834 0.123 53.954 0.172 54.043 0.26 C 54.131 0.347 54.182 0.466 54.182 0.591 C 54.186 0.853 53.978 1.07 53.715 1.075 L 50.321 1.137 Z M 57.571 1.013 C 57.447 1.014 57.327 0.965 57.238 0.877 C 57.15 0.79 57.099 0.671 57.098 0.546 C 57.098 0.282 57.301 0.068 57.566 0.062 L 60.96 0 L 60.971 0 C 61.22 0.018 61.412 0.224 61.414 0.473 C 61.415 0.722 61.225 0.93 60.977 0.951 L 57.583 1.014 L 57.571 1.014 Z M 27.979 21.443 C 27.853 21.444 27.732 21.394 27.643 21.305 C 27.554 21.216 27.504 21.096 27.505 20.97 C 27.506 20.708 27.716 20.496 27.978 20.492 L 32.426 20.48 C 32.69 20.48 32.898 20.694 32.898 20.953 C 32.897 21.215 32.687 21.428 32.426 21.432 L 27.978 21.442 Z M 27.979 30.743 C 27.853 30.744 27.732 30.694 27.643 30.605 C 27.554 30.516 27.504 30.396 27.505 30.27 C 27.505 30.008 27.716 29.795 27.978 29.791 L 32.426 29.781 C 32.551 29.78 32.671 29.83 32.76 29.919 C 32.848 30.007 32.898 30.128 32.898 30.253 C 32.897 30.515 32.687 30.728 32.426 30.732 L 27.978 30.742 Z M 0.472 39.879 C 0.212 39.879 0 39.667 0 39.407 C 0 39.146 0.212 38.934 0.472 38.934 L 35.008 38.922 C 35.27 38.922 35.481 39.134 35.481 39.395 C 35.481 39.656 35.27 39.868 35.008 39.868 Z" fill="var(--token-2f7038ac-bbf8-44f5-ae13-dbd500870086, rgb(29, 29, 29))" height="39.87900088500976px" id="MrzQV5Zmh" transform="translate(13.441 15.293)" width="61.41382064423146px"></path><path d="M 39.888 24.942 C 42.494 14.082 35.802 3.167 24.942 0.562 C 14.082 -2.043 3.167 4.648 0.562 15.508 C -2.043 26.368 4.649 37.283 15.508 39.888 C 26.368 42.493 37.283 35.802 39.888 24.942 Z" fill="var(--token-9fc38d7a-a3f6-4f38-9b69-d5eb5696eb0d, rgb(255, 255, 255))" height="40.45097063022697px" id="QjBfTZpna" transform="translate(50.784 22.712)" width="40.451235477411984px"></path><path d="M 20.694 41.394 C 9.284 41.394 0 32.11 0 20.694 C 0 9.277 9.283 0 20.694 0 C 32.105 0 41.394 9.283 41.394 20.694 C 41.394 32.104 32.111 41.394 20.694 41.394 Z M 20.694 0.951 C 9.807 0.951 0.946 9.811 0.946 20.699 C 0.946 31.587 9.806 40.447 20.694 40.447 C 31.582 40.447 40.442 31.587 40.442 20.699 C 40.442 9.812 31.582 0.951 20.694 0.951 Z" fill="var(--token-2f7038ac-bbf8-44f5-ae13-dbd500870086, rgb(29, 29, 29))" height="41.394000000000005px" id="xzj1bY26k" transform="translate(50.319 22.246)" width="41.39400000769095px"></path><path d="M 0.473 40.838 C 0.347 40.838 0.226 40.787 0.137 40.698 C 0.048 40.608 -0.001 40.486 0 40.36 L 0.248 0.47 C 0.25 0.209 0.463 -0.002 0.724 0 C 0.985 0.002 1.196 0.215 1.194 0.476 L 0.946 40.366 C 0.944 40.626 0.733 40.836 0.473 40.838 Z" fill="var(--token-2f7038ac-bbf8-44f5-ae13-dbd500870086, rgb(29, 29, 29))" height="40.83800971824351px" id="CU_UOApgh" transform="translate(70.259 22.649)" width="1.1940361816867953px"></path><path d="M 20.497 5.022 C 14.806 5.022 9.21 3.559 4.74 0.896 C 4.52 0.758 4.451 0.47 4.584 0.248 C 4.718 0.026 5.005 -0.049 5.23 0.08 C 9.553 2.652 14.98 4.071 20.503 4.071 L 20.52 4.071 C 26.048 4.071 31.474 2.647 35.803 0.063 C 36.027 -0.066 36.314 0.009 36.448 0.231 C 36.581 0.453 36.512 0.741 36.293 0.879 C 31.823 3.547 26.223 5.017 20.525 5.022 Z M 0.479 13.551 C 0.217 13.554 0.003 13.345 0 13.084 C -0.003 12.823 0.206 12.608 0.468 12.605 C 13.528 12.301 26.611 12.11 40.47 12.031 C 40.73 12.031 40.943 12.24 40.943 12.504 C 40.944 12.631 40.895 12.753 40.806 12.843 C 40.717 12.933 40.596 12.983 40.47 12.983 C 26.616 13.061 13.539 13.253 0.484 13.557 L 0.473 13.557 Z M 34.492 27.9 C 34.373 27.901 34.259 27.857 34.172 27.777 C 25.974 20.29 14.338 19.901 5.872 26.842 C 5.668 27.009 5.368 26.979 5.202 26.775 C 5.035 26.572 5.065 26.272 5.269 26.105 C 14.113 18.86 26.262 19.259 34.813 27.073 C 34.957 27.205 35.005 27.412 34.934 27.594 C 34.863 27.776 34.687 27.896 34.492 27.895 Z" fill="var(--token-2f7038ac-bbf8-44f5-ae13-dbd500870086, rgb(29, 29, 29))" height="27.90027875348306px" id="hwvb6fTh9" transform="translate(50.505 30.126)" width="40.942570750577445px"></path><path d="M 11.61 41.248 C 11.558 41.247 11.507 41.238 11.458 41.22 C 9.099 40.415 6.903 38.67 4.928 36.04 C 0.886 30.648 -0.82 23.465 0.373 16.827 C 1.544 10.308 5.856 3.891 11.627 0.08 C 11.785 -0.027 11.992 -0.027 12.15 0.08 C 16.93 3.221 19.998 7.449 21.81 13.377 C 24.22 21.241 23.032 28.537 18.185 35.675 C 16.26 38.512 14.098 40.375 11.767 41.215 C 11.715 41.233 11.66 41.242 11.604 41.242 Z M 11.891 1.054 C 6.464 4.741 2.422 10.826 1.308 16.996 C 0.159 23.375 1.798 30.282 5.688 35.472 C 7.495 37.887 9.488 39.497 11.604 40.269 C 13.687 39.469 15.634 37.747 17.403 35.146 C 22.081 28.261 23.229 21.23 20.91 13.658 C 19.198 8.062 16.327 4.048 11.897 1.054 Z" fill="var(--token-2f7038ac-bbf8-44f5-ae13-dbd500870086, rgb(29, 29, 29))" height="41.24808043471543px" id="ZgJ_2GD68" transform="translate(59.122 22.239)" width="23.018677990464656px"></path><path d="M 18.673 20.982 C 18.673 13.517 18.723 7.014 18.673 0 C 12.486 0 6.265 0.304 0.028 0.192 C -0.034 7.335 0.028 14.057 0.028 21.004 C 6.26 21.004 12.475 20.981 18.673 20.981 Z" fill="var(--token-9fc38d7a-a3f6-4f38-9b69-d5eb5696eb0d, rgb(255, 255, 255))" height="21.004000000000005px" id="tLAZeaMny" transform="translate(13.914 24.548)" width="18.694777777777787px"></path><path d="M 0.498 21.949 C 0.373 21.949 0.252 21.9 0.163 21.811 C 0.075 21.722 0.025 21.602 0.025 21.476 C 0.025 19.163 0.019 16.871 0.014 14.58 C 0.002 10.082 -0.015 5.427 0.024 0.664 C 0.024 0.534 0.075 0.416 0.171 0.326 C 0.263 0.24 0.384 0.192 0.509 0.191 C 4.1 0.253 7.754 0.18 11.284 0.107 C 13.862 0.057 16.53 0 19.148 0 C 19.408 0 19.621 0.208 19.621 0.473 C 19.655 5.095 19.644 9.469 19.632 14.102 C 19.626 16.553 19.622 19.003 19.621 21.454 C 19.621 21.58 19.572 21.7 19.483 21.789 C 19.394 21.878 19.274 21.927 19.148 21.927 C 16.052 21.927 12.95 21.932 9.848 21.937 C 6.735 21.944 3.622 21.949 0.503 21.949 Z M 0.971 1.143 C 0.937 5.736 0.948 10.223 0.959 14.569 C 0.965 16.702 0.97 18.836 0.97 20.992 C 3.932 20.992 6.887 20.987 9.843 20.981 C 12.787 20.975 15.731 20.97 18.67 20.97 C 18.67 18.6 18.675 16.32 18.68 14.09 C 18.692 9.62 18.703 5.387 18.675 0.94 C 16.217 0.953 13.759 0.989 11.301 1.047 C 7.917 1.114 4.427 1.187 0.971 1.137 Z" fill="var(--token-2f7038ac-bbf8-44f5-ae13-dbd500870086, rgb(29, 29, 29))" height="21.94900106310561px" id="sRhWvUfeI" transform="translate(13.444 24.081)" width="19.643962753517776px"></path><path d="M 2.029 17.451 C 1.994 17.451 1.96 17.439 1.933 17.417 C 1.359 16.995 0.818 16.517 0.323 16.004 C 0.261 15.942 0.267 15.84 0.323 15.779 C 0.386 15.719 0.485 15.719 0.548 15.779 C 1.032 16.279 1.561 16.741 2.118 17.158 C 2.187 17.21 2.202 17.307 2.152 17.378 C 2.121 17.418 2.072 17.44 2.022 17.439 L 2.028 17.451 Z M 5.789 17.991 C 5.748 17.993 5.709 17.977 5.682 17.946 C 3.838 16.228 1.96 14.548 0.047 12.907 C -0.012 12.848 -0.016 12.753 0.039 12.689 C 0.093 12.626 0.188 12.615 0.255 12.665 C 2.17 14.308 4.05 15.989 5.896 17.709 C 5.96 17.77 5.963 17.871 5.902 17.935 C 5.871 17.967 5.828 17.986 5.783 17.985 Z M 9.566 17.974 C 9.529 17.974 9.493 17.96 9.466 17.934 L 0.278 10.166 C 0.211 10.108 0.204 10.008 0.261 9.941 C 0.318 9.874 0.419 9.867 0.486 9.924 L 9.673 17.692 C 9.724 17.735 9.743 17.805 9.72 17.868 C 9.698 17.931 9.639 17.973 9.572 17.974 Z M 13.062 17.799 C 13.023 17.8 12.984 17.786 12.955 17.76 C 8.868 14.101 4.686 10.55 0.413 7.11 C 0.344 7.054 0.334 6.953 0.389 6.884 C 0.445 6.816 0.546 6.805 0.615 6.861 C 4.893 10.304 9.079 13.859 13.169 17.524 C 13.201 17.552 13.221 17.592 13.223 17.634 C 13.225 17.677 13.209 17.718 13.18 17.749 C 13.149 17.781 13.106 17.799 13.062 17.799 Z M 15.776 16.668 C 15.739 16.667 15.704 16.655 15.674 16.634 C 10.476 12.464 5.365 8.186 0.345 3.804 C 0.286 3.745 0.282 3.65 0.337 3.586 C 0.391 3.523 0.486 3.512 0.553 3.562 C 5.571 7.941 10.678 12.217 15.871 16.388 C 15.939 16.444 15.95 16.544 15.894 16.613 C 15.864 16.651 15.818 16.673 15.77 16.675 L 15.776 16.669 Z M 15.663 13.206 C 15.626 13.206 15.591 13.194 15.562 13.172 L 0.385 0.77 C 0.316 0.714 0.306 0.613 0.362 0.545 C 0.418 0.477 0.519 0.467 0.587 0.523 L 15.764 12.924 C 15.797 12.951 15.818 12.99 15.822 13.032 C 15.827 13.075 15.814 13.117 15.787 13.15 C 15.756 13.186 15.711 13.207 15.663 13.206 Z M 15.691 9.648 C 15.653 9.649 15.617 9.635 15.59 9.608 C 11.904 6.432 8.162 3.323 4.365 0.281 C 4.3 0.224 4.291 0.126 4.346 0.059 C 4.4 -0.008 4.498 -0.02 4.567 0.033 C 8.367 3.077 12.112 6.191 15.798 9.373 C 15.864 9.43 15.871 9.53 15.815 9.597 C 15.785 9.631 15.742 9.652 15.697 9.654 Z M 15.657 5.696 C 15.625 5.695 15.594 5.686 15.567 5.668 C 13.319 4.046 11.128 2.346 8.997 0.573 C 8.929 0.517 8.919 0.416 8.975 0.348 C 9.031 0.28 9.132 0.27 9.2 0.326 C 11.327 2.092 13.513 3.788 15.753 5.409 C 15.826 5.459 15.838 5.561 15.787 5.629 C 15.758 5.672 15.709 5.698 15.657 5.696 Z M 15.781 2.577 C 15.743 2.577 15.707 2.563 15.68 2.537 C 14.896 1.867 14.083 1.232 13.242 0.635 C 13.207 0.611 13.183 0.575 13.176 0.533 C 13.169 0.492 13.178 0.449 13.203 0.415 C 13.227 0.38 13.263 0.356 13.305 0.349 C 13.346 0.342 13.389 0.351 13.423 0.376 C 14.267 0.978 15.094 1.626 15.883 2.296 C 15.933 2.339 15.951 2.409 15.929 2.472 C 15.906 2.534 15.847 2.576 15.781 2.577 Z" fill="var(--token-2f7038ac-bbf8-44f5-ae13-dbd500870086, rgb(29, 29, 29))" height="17.991167844176328px" id="S4esWkJz5" transform="translate(15.319 26.266)" width="15.938279922949398px"></path></g></svg>