<svg display="block" role="presentation" viewBox="0 0 92 68" xmlns="http://www.w3.org/2000/svg" id="1583505971"><g d="M 0.515 26.108 C 8.597 18.645 17.123 10.741 25.205 3.277 C 26.686 1.908 28.388 0.453 30.408 0.512 C 31.642 0.55 32.781 1.162 33.812 1.838 C 43.23 7.998 50.452 21.77 56.434 26.775 C 56.144 36.15 49.228 45.707 42.189 51.904 C 39.745 54.052 37.054 56.033 33.94 56.973 C 31.616 57.671 29.124 57.757 26.724 57.381 C 19.663 56.275 13.687 51.287 9.729 45.326 C 5.777 39.371 3.114 32.906 0.51 26.115 Z M 29.96 57.998 C 29.02 57.998 28.064 57.924 27.109 57.774 C 20.601 56.753 14.297 52.285 9.808 45.52 C 5.722 39.367 2.989 32.612 0.54 26.222 C 0.474 26.047 0.52 25.849 0.658 25.722 C 4.701 21.991 8.852 18.151 13.003 14.307 C 17.115 10.498 21.23 6.692 25.348 2.89 C 26.969 1.392 28.735 -0.063 30.878 0.002 C 32.263 0.044 33.493 0.732 34.518 1.397 C 40.194 5.107 45.042 11.503 49.322 17.146 C 52.141 20.862 54.804 24.373 57.189 26.366 C 57.296 26.458 57.355 26.59 57.355 26.731 C 57.054 36.423 49.72 46.238 42.954 52.188 C 40.838 54.051 37.971 56.316 34.54 57.348 C 33.112 57.777 31.565 57.992 29.97 57.992 L 29.96 57.997 Z M 1.506 26.185 C 3.906 32.44 6.597 39.034 10.565 45.016 C 14.914 51.567 20.993 55.889 27.249 56.873 C 29.702 57.258 32.129 57.12 34.266 56.48 C 37.525 55.497 40.297 53.306 42.342 51.507 C 48.914 45.73 56.029 36.259 56.426 26.926 C 54.01 24.848 51.379 21.374 48.592 17.702 C 44.361 12.117 39.561 5.792 34.019 2.167 C 33.106 1.571 32.011 0.953 30.851 0.916 C 29.042 0.867 27.453 2.194 25.975 3.558 C 21.857 7.359 17.742 11.163 13.631 14.971 C 9.555 18.741 5.486 22.51 1.511 26.178 L 1.506 26.183 Z M 11.74 5.612 C 12.11 20.663 12.212 35.72 12.041 50.775 C 12.041 50.775 46.282 50.706 46.314 50.287 C 46.238 35.425 46.444 20.563 46.932 5.709 L 11.734 5.612 Z M 11.993 51.183 C 11.87 51.183 11.752 51.135 11.665 51.049 C 11.578 50.962 11.53 50.844 11.53 50.721 C 11.697 35.671 11.595 20.62 11.224 5.574 C 11.223 5.451 11.269 5.331 11.354 5.241 C 11.44 5.153 11.558 5.104 11.68 5.102 L 46.879 5.198 C 47.003 5.198 47.121 5.248 47.207 5.337 C 47.293 5.427 47.339 5.547 47.335 5.67 C 46.849 20.517 46.645 35.372 46.723 50.227 L 46.723 50.27 C 46.675 50.79 46.675 50.823 40.902 50.941 C 38.056 51 34.088 51.049 29.117 51.092 C 20.648 51.161 12.073 51.178 11.988 51.178 Z M 12.159 6.02 C 12.513 20.7 12.615 35.579 12.455 50.264 C 24.928 50.238 43.125 50.109 45.809 49.856 C 45.74 35.337 45.944 20.625 46.412 6.111 L 12.159 6.014 L 12.159 6.019 Z M 0.81 26.02 C 1.567 34.327 1.54 42.703 0.729 50.999 C 0.504 53.298 0.305 55.838 0.928 58.04 C 1.377 59.633 2.832 60.733 4.488 60.73 L 10.888 60.707 C 13.418 60.697 15.941 60.692 18.47 60.681 C 29.451 60.643 40.426 60.6 51.407 60.562 C 52.422 60.562 53.458 60.552 54.403 60.187 C 55.348 59.821 56.191 59.011 56.164 58.082 C 56.545 47.541 56.804 37 56.728 26.686 C 49.427 33.71 41.955 40.554 34.32 47.213 C 33.118 48.267 31.518 49.384 29.994 48.91 C 25.531 47.236 21.863 44.002 18.303 40.84 C 12.467 35.653 6.636 30.467 0.81 26.026 L 0.81 26.021 Z M 4.422 60.995 C 2.567 60.989 0.94 59.756 0.433 57.971 C -0.196 55.754 -0.023 53.3 0.224 50.765 C 1.03 42.507 1.055 34.131 0.304 25.873 C 0.287 25.692 0.38 25.518 0.54 25.432 C 0.7 25.344 0.896 25.359 1.04 25.47 C 6.877 29.921 12.815 35.199 18.56 40.306 C 21.89 43.27 25.67 46.626 30.105 48.291 C 31.442 48.704 32.952 47.571 33.971 46.679 C 41.598 40.023 49.064 33.184 56.362 26.169 C 56.493 26.042 56.688 26.005 56.856 26.076 C 57.025 26.148 57.135 26.313 57.135 26.495 C 57.199 35.436 57.023 45.418 56.572 57.913 C 56.604 59.078 55.562 60.023 54.515 60.426 C 53.479 60.829 52.352 60.829 51.352 60.834 L 4.439 61 L 4.422 61 Z M 1.31 26.823 C 1.975 34.808 1.916 42.884 1.137 50.852 C 0.901 53.295 0.735 55.658 1.321 57.719 C 1.715 59.111 2.983 60.072 4.429 60.077 L 4.439 60.077 L 51.354 59.91 C 52.315 59.91 53.308 59.905 54.188 59.561 C 54.913 59.282 55.681 58.643 55.66 57.897 C 56.089 45.885 56.272 36.209 56.229 27.554 C 49.164 34.321 41.944 40.923 34.573 47.356 C 33.387 48.393 31.604 49.703 29.811 49.144 C 25.188 47.409 21.343 43.995 17.949 40.977 C 12.488 36.123 6.85 31.108 1.302 26.818 L 1.309 26.823 Z M 17.969 13.254 C 17.718 13.254 17.513 13.05 17.513 12.798 C 17.513 12.546 17.717 12.342 17.969 12.337 L 40.522 12.245 C 40.774 12.245 40.978 12.449 40.978 12.701 C 40.978 12.954 40.774 13.158 40.522 13.163 L 17.969 13.255 Z M 40.473 20.6 L 40.463 20.6 L 17.658 20.063 C 17.406 20.06 17.204 19.853 17.207 19.601 C 17.21 19.349 17.416 19.147 17.668 19.15 L 17.68 19.15 L 40.484 19.687 C 40.736 19.69 40.938 19.897 40.935 20.149 C 40.933 20.401 40.726 20.602 40.474 20.6 Z M 40.253 28.057 C 32.828 27.979 25.404 27.775 17.985 27.444 C 17.864 27.439 17.751 27.385 17.669 27.296 C 17.588 27.206 17.545 27.088 17.551 26.967 C 17.554 26.845 17.607 26.73 17.697 26.647 C 17.787 26.565 17.907 26.523 18.028 26.531 C 25.406 26.86 32.891 27.069 40.27 27.143 C 40.522 27.143 40.726 27.354 40.721 27.606 C 40.719 27.856 40.514 28.058 40.264 28.057 Z M 40.205 34.704 L 40.194 34.704 L 17.798 34.259 C 17.545 34.253 17.343 34.044 17.347 33.791 C 17.347 33.539 17.567 33.345 17.814 33.34 L 40.211 33.786 C 40.463 33.786 40.667 34 40.662 34.253 C 40.659 34.504 40.455 34.706 40.204 34.704 Z" fill="transparent" height="61.00000089783361px" id="CsgkOmcOH" transform="translate(17 7)" width="57.35541605699849px"><path d="M 0.005 25.598 C 8.087 18.135 16.613 10.231 24.694 2.767 C 26.176 1.398 27.878 -0.057 29.897 0.002 C 31.132 0.04 32.271 0.652 33.301 1.328 C 42.72 7.487 49.942 21.26 55.924 26.265 C 55.634 35.64 48.718 45.197 41.679 51.394 C 39.235 53.542 36.544 55.523 33.43 56.463 C 31.106 57.161 28.614 57.247 26.214 56.871 C 19.153 55.765 13.176 50.776 9.219 44.816 C 5.267 38.861 2.604 32.396 0 25.604 Z" fill="var(--token-6bd109d2-1e50-4eef-8647-ad9177b426de, rgb(219, 245, 240))" height="57.091207195930146px" id="zLmhU3Wsi" stroke-dasharray="" stroke-linecap="butt" stroke-linejoin="miter" stroke-miterlimit="10" stroke-width="0.1" stroke="var(--token-2f7038ac-bbf8-44f5-ae13-dbd500870086, rgb(29, 29, 29))" transform="translate(0.51 0.51)" width="55.92355445700616px"></path><path d="M 29.45 57.998 C 28.51 57.998 27.554 57.924 26.599 57.774 C 20.091 56.753 13.787 52.285 9.298 45.52 C 5.211 39.367 2.479 32.612 0.03 26.222 C -0.037 26.047 0.01 25.849 0.148 25.722 C 4.191 21.991 8.342 18.151 12.493 14.307 C 16.604 10.498 20.719 6.692 24.838 2.89 C 26.459 1.392 28.225 -0.063 30.368 0.002 C 31.753 0.044 32.982 0.732 34.008 1.397 C 39.684 5.107 44.532 11.503 48.812 17.146 C 51.631 20.862 54.294 24.373 56.679 26.366 C 56.786 26.458 56.845 26.59 56.845 26.731 C 56.544 36.423 49.21 46.238 42.443 52.188 C 40.328 54.051 37.461 56.316 34.03 57.348 C 32.602 57.777 31.055 57.992 29.46 57.992 L 29.45 57.997 Z M 0.996 26.185 C 3.396 32.44 6.087 39.034 10.055 45.016 C 14.404 51.567 20.483 55.889 26.739 56.873 C 29.192 57.258 31.619 57.12 33.756 56.48 C 37.015 55.497 39.786 53.306 41.832 51.507 C 48.404 45.73 55.519 36.259 55.916 26.926 C 53.499 24.848 50.869 21.374 48.082 17.702 C 43.851 12.117 39.051 5.792 33.509 2.167 C 32.596 1.571 31.501 0.953 30.341 0.916 C 28.531 0.867 26.943 2.194 25.465 3.558 C 21.347 7.359 17.232 11.163 13.12 14.971 C 9.045 18.741 4.976 22.51 1.001 26.178 L 0.996 26.183 Z" fill="var(--token-2f7038ac-bbf8-44f5-ae13-dbd500870086, rgb(29, 29, 29))" height="57.99808743116813px" id="VAb2xTxQ_" stroke-dasharray="" stroke-linecap="butt" stroke-linejoin="miter" stroke-miterlimit="10" stroke-width="0.1" stroke="var(--token-2f7038ac-bbf8-44f5-ae13-dbd500870086, rgb(29, 29, 29))" transform="translate(0.51 0)" width="56.84522050369573px"></path><path d="M 0.005 0 C 0.376 15.051 0.478 30.108 0.306 45.163 C 0.306 45.163 34.547 45.094 34.579 44.675 C 34.504 29.813 34.71 14.951 35.197 0.097 L 0 0 Z" fill="var(--token-9fc38d7a-a3f6-4f38-9b69-d5eb5696eb0d, rgb(255, 255, 255))" height="45.16250994904005px" id="TrUD9x5bz" stroke-dasharray="" stroke-linecap="butt" stroke-linejoin="miter" stroke-miterlimit="10" stroke-width="0.1" stroke="var(--token-2f7038ac-bbf8-44f5-ae13-dbd500870086, rgb(29, 29, 29))" transform="translate(11.734 5.612)" width="35.19737049666037px"></path><path d="M 0.768 46.081 C 0.646 46.081 0.528 46.033 0.441 45.947 C 0.354 45.86 0.306 45.742 0.306 45.619 C 0.473 30.569 0.371 15.518 0 0.472 C -0.001 0.349 0.045 0.229 0.13 0.139 C 0.216 0.051 0.333 0.002 0.456 0 L 35.655 0.096 C 35.778 0.096 35.897 0.147 35.983 0.236 C 36.069 0.325 36.115 0.445 36.111 0.568 C 35.625 15.415 35.421 30.27 35.498 45.125 L 35.498 45.168 C 35.45 45.688 35.45 45.721 29.678 45.839 C 26.831 45.898 22.864 45.947 17.893 45.99 C 9.423 46.059 0.849 46.076 0.763 46.076 Z M 0.935 0.918 C 1.289 15.598 1.391 30.477 1.231 45.163 C 13.704 45.136 31.901 45.007 34.585 44.754 C 34.516 30.235 34.72 15.523 35.187 1.009 L 0.935 0.912 L 0.935 0.917 Z" fill="var(--token-2f7038ac-bbf8-44f5-ae13-dbd500870086, rgb(29, 29, 29))" height="46.080866237170646px" id="H1_4qD4Fv" stroke-dasharray="" stroke-linecap="butt" stroke-linejoin="miter" stroke-miterlimit="10" stroke-width="0.1" stroke="var(--token-2f7038ac-bbf8-44f5-ae13-dbd500870086, rgb(29, 29, 29))" transform="translate(11.224 5.102)" width="36.11091170110521px"></path><path d="M 0.299 0 C 1.057 8.307 1.03 16.683 0.219 24.979 C -0.007 27.278 -0.206 29.818 0.418 32.02 C 0.867 33.614 2.322 34.713 3.978 34.71 L 10.378 34.687 C 12.907 34.677 15.431 34.672 17.959 34.661 C 28.941 34.623 39.916 34.58 50.897 34.542 C 51.912 34.542 52.948 34.532 53.892 34.167 C 54.837 33.801 55.681 32.991 55.654 32.062 C 56.035 21.521 56.293 10.98 56.218 0.666 C 48.917 7.69 41.445 14.534 33.81 21.194 C 32.608 22.247 31.008 23.364 29.484 22.89 C 25.02 21.216 21.353 17.982 17.793 14.82 C 11.956 9.634 6.126 4.447 0.299 0.006 L 0.299 0.001 Z" fill="var(--token-9fc38d7a-a3f6-4f38-9b69-d5eb5696eb0d, rgb(255, 255, 255))" height="34.70963172267764px" id="S2bA_kG7D" stroke-dasharray="" stroke-linecap="butt" stroke-linejoin="miter" stroke-miterlimit="10" stroke-width="0.1" stroke="var(--token-2f7038ac-bbf8-44f5-ae13-dbd500870086, rgb(29, 29, 29))" transform="translate(0.51 26.02)" width="56.23107507794741px"></path><path d="M 4.422 48.75 C 2.567 48.744 0.94 47.511 0.433 45.727 C -0.196 43.509 -0.023 41.055 0.224 38.521 C 1.03 30.263 1.055 21.886 0.304 13.628 C 0.287 13.447 0.38 13.273 0.54 13.188 C 0.7 13.099 0.896 13.114 1.04 13.225 C 6.877 17.676 12.815 22.955 18.56 28.062 C 21.89 31.025 25.67 34.381 30.105 36.046 C 31.442 36.46 32.952 35.326 33.971 34.434 C 41.598 27.778 49.064 20.939 56.362 13.924 C 56.493 13.797 56.688 13.761 56.856 13.832 C 57.025 13.903 57.135 14.068 57.135 14.251 C 57.199 23.191 57.023 33.173 56.572 45.669 C 56.604 46.833 55.562 47.779 54.515 48.181 C 53.479 48.584 52.352 48.584 51.352 48.589 L 4.439 48.755 L 4.422 48.755 Z M 1.31 14.578 C 1.975 22.563 1.916 30.639 1.137 38.608 C 0.901 41.05 0.735 43.414 1.321 45.475 C 1.715 46.866 2.983 47.827 4.429 47.832 L 4.439 47.832 L 51.354 47.666 C 52.315 47.666 53.308 47.66 54.188 47.317 C 54.913 47.037 55.681 46.398 55.66 45.652 C 56.089 33.64 56.272 23.964 56.229 15.309 C 49.164 22.076 41.944 28.679 34.573 35.112 C 33.387 36.148 31.604 37.459 29.811 36.899 C 25.188 35.165 21.343 31.75 17.949 28.732 C 12.488 23.878 6.85 18.863 1.302 14.573 L 1.309 14.578 Z M 17.969 1.009 C 17.718 1.009 17.513 0.805 17.513 0.553 C 17.513 0.301 17.717 0.097 17.969 0.092 L 40.522 0 C 40.774 0 40.978 0.204 40.978 0.456 C 40.978 0.709 40.774 0.913 40.522 0.918 L 17.969 1.01 Z M 40.473 8.355 L 40.463 8.355 L 17.658 7.818 C 17.406 7.815 17.204 7.609 17.207 7.357 C 17.21 7.104 17.416 6.902 17.668 6.905 L 17.68 6.905 L 40.484 7.443 C 40.736 7.446 40.938 7.652 40.935 7.904 C 40.933 8.156 40.726 8.358 40.474 8.355 Z" fill="var(--token-2f7038ac-bbf8-44f5-ae13-dbd500870086, rgb(29, 29, 29))" height="48.75530714173009px" id="OXkj3G0nO" stroke-dasharray="" stroke-linecap="butt" stroke-linejoin="miter" stroke-miterlimit="10" stroke-width="0.1" stroke="var(--token-2f7038ac-bbf8-44f5-ae13-dbd500870086, rgb(29, 29, 29))" transform="translate(0 12.245)" width="57.14795070902505px"></path><path d="M 22.907 1.526 C 15.481 1.448 8.057 1.244 0.639 0.914 C 0.518 0.909 0.404 0.855 0.322 0.766 C 0.241 0.676 0.198 0.558 0.204 0.437 C 0.207 0.315 0.26 0.199 0.35 0.117 C 0.44 0.035 0.56 -0.007 0.682 0.001 C 8.059 0.329 15.545 0.539 22.923 0.613 C 23.175 0.613 23.379 0.823 23.374 1.075 C 23.372 1.326 23.168 1.528 22.917 1.526 Z M 22.859 8.174 L 22.848 8.174 L 0.451 7.728 C 0.198 7.723 -0.003 7.514 0 7.261 C 0 7.009 0.22 6.815 0.467 6.81 L 22.864 7.256 C 23.116 7.256 23.32 7.47 23.315 7.723 C 23.313 7.974 23.108 8.175 22.858 8.174 Z" fill="var(--token-2f7038ac-bbf8-44f5-ae13-dbd500870086, rgb(29, 29, 29))" height="8.174259490497386px" id="c0x68EX5W" stroke-dasharray="" stroke-linecap="butt" stroke-linejoin="miter" stroke-miterlimit="10" stroke-width="0.1" stroke="var(--token-2f7038ac-bbf8-44f5-ae13-dbd500870086, rgb(29, 29, 29))" transform="translate(17.347 26.53)" width="23.374235482872216px"></path></g></svg>