<svg
  class="icon-hand"
  xmlns="http://www.w3.org/2000/svg"
  viewBox="0 0 20.36 25.919"
  fill="none"
  aria-hidden="true"
>
  <path
    d="M 17.936 16.2 C 17.584 15.236 16.354 14.894 15.637 14.517 L 19.363 7.333 C 19.6 6.724 20.331 5.236 20.171 4.692 C 20.011 4.147 19.21 3.492 18.729 3.278 C 18.12 3.042 17.199 3.918 16.652 4.089 C 16.106 4.259 15.869 5.639 15.517 6.218 L 14.179 6.506 L 14.587 4.121 C 14.802 2.869 15.9 0.896 13.477 0.055 C 12.271 -0.365 11.122 1.722 11.142 3.145 L 10.08 7.875 C 9.974 7.725 8.73 6.517 8.483 6.475 C 7.895 6.121 7.493 6.397 6.946 6.567 C 6.273 6.705 5.812 7.144 5.48 7.604 C 5.352 7.583 5.255 7.434 5.127 7.412 C 4.538 7.058 3.917 6.952 3.373 7.112 C 2.559 7.358 1.949 7.902 1.67 8.758 C 1.648 8.886 1.52 8.864 1.5 8.982 L 0.079 18.052 C -0.416 20.941 1.475 24.237 4.363 24.732 L 10.641 25.807 C 14.288 26.431 15.404 24.421 17.643 20.411 C 18.628 19.16 18.427 17.309 17.979 16.198 L 17.937 16.201 Z"
    fill="var(--icon-bg, #ffffff)"
  />

  <path
    d="M 13.754 9.801 L 15.024 2.389 C 15.124 1.855 15.003 1.303 14.689 0.859 C 14.375 0.415 13.894 0.118 13.357 0.034 C 12.823 -0.066 12.271 0.055 11.827 0.369 C 11.383 0.683 11.086 1.163 11.002 1.7 L 9.969 7.733 M 15.792 14.543 L 20.122 5.849 C 20.669 4.909 20.242 3.669 19.172 3.099 C 18.21 2.681 16.97 3.108 16.422 4.049 L 13.754 9.801 M 5.636 8.147 L 6.522 11.272 C 6.852 12.363 6.135 13.529 5.064 13.742 C 3.973 14.072 2.807 13.354 2.594 12.283 L 1.581 9.137 C 1.251 8.046 1.968 6.88 3.039 6.667 C 4.13 6.337 5.296 7.054 5.627 8.146 L 5.637 8.147 Z"
    fill="transparent"
    stroke="currentColor"
    stroke-linecap="round"
    stroke-miterlimit="10"
  />

  <path
    d="M 10.031 12.454 C 10.406 11.747 10.536 10.988 10.269 10.293 L 9.406 7.04 C 9.076 5.949 8.028 5.252 6.936 5.583 C 5.845 5.913 5.262 6.949 5.592 8.041"
    fill="transparent"
    stroke="currentColor"
    stroke-linecap="round"
    stroke-miterlimit="10"
  />

  <path
    d="M 11.729 19.796 L 12.575 18.652 C 12.596 18.524 12.617 18.406 12.488 18.384 L 8.178 16.357 C 7.344 15.961 6.865 14.966 7.143 14.11 C 7.443 13.127 8.449 12.528 9.583 12.722 L 15.529 14.258 C 15.529 14.258 20.171 15.824 17.726 20.326 C 15.281 24.828 14.372 26.346 10.725 25.722 L 4.446 24.646 C 1.558 24.152 -0.419 21.358 0.076 18.47 L 1.616 8"
    fill="transparent"
    stroke="currentColor"
    stroke-linecap="round"
    stroke-miterlimit="10"
  />
</svg>