<svg
  class="icon-design-tools"
  xmlns="http://www.w3.org/2000/svg"
  viewBox="0 0 45.962 74.001"
  fill="none"
  aria-hidden="true"
>
  <path
    d="M 24.113 16.143 C 24.052 16.28 23.938 16.387 23.797 16.441 C 23.656 16.494 23.5 16.488 23.363 16.426 C 22.025 15.815 20.797 14.989 19.726 13.981 C 19.497 13.767 19.486 13.408 19.7 13.18 C 19.914 12.951 20.272 12.939 20.501 13.153 C 21.482 14.076 22.607 14.833 23.832 15.393 C 24.117 15.523 24.242 15.859 24.113 16.143 Z M 24.166 17.791 C 24.125 17.936 24.027 18.058 23.896 18.131 C 23.764 18.203 23.609 18.22 23.464 18.178 C 22.111 17.783 20.843 17.141 19.724 16.285 C 19.475 16.096 19.426 15.74 19.615 15.491 C 19.805 15.241 20.251 14.761 20.5 14.95 C 21.536 15.737 22.633 16.438 23.832 16.784 C 24.134 16.871 24.253 17.489 24.166 17.791 Z"
    fill="currentColor"
  />

  <path
    d="M 35.5 5 L 30.5 0.5 L 18.5 13.5 C 18.964 16.313 19.849 19.825 20.5 23.5 C 22.083 23.124 24.408 22.835 26 22.5 L 26 22 C 26 21 25.236 18.672 25 17 C 24.983 16.874 25.428 16.606 25.5 16.5 C 28.395 12.306 31.749 8.449 35.5 5 Z M 19.919 13.407 C 20.011 13.308 20.139 13.25 20.275 13.246 C 20.41 13.241 20.541 13.291 20.64 13.383 C 21.524 14.215 22.538 14.897 23.642 15.402 C 23.899 15.519 24.013 15.821 23.896 16.078 C 23.779 16.335 23.477 16.449 23.22 16.332 C 22.014 15.782 20.907 15.037 19.942 14.129 C 19.843 14.036 19.785 13.908 19.781 13.773 C 19.776 13.637 19.826 13.506 19.919 13.407 Z M 23.943 17.562 C 23.905 17.692 23.817 17.802 23.699 17.867 C 23.58 17.933 23.44 17.948 23.31 17.91 C 22.091 17.554 20.948 16.976 19.94 16.204 C 19.732 16.029 19.698 15.721 19.863 15.505 C 20.027 15.288 20.332 15.238 20.557 15.391 C 21.465 16.087 22.495 16.609 23.594 16.929 C 23.724 16.966 23.835 17.054 23.9 17.173 C 23.966 17.292 23.981 17.432 23.943 17.562 Z"
    fill="var(--icon-pencil, #ffe7a9)"
  />

  <path
    d="M 40 20 C 35.422 20.636 30.518 21.553 26 22.5 C 24.085 22.898 22.268 23.544 20.37 24 C 13.883 25.552 6.782 27.326 0.5 29.5 L 3 37 C 3.966 36.94 5.01 36.59 6 36.5 C 16.557 35.545 27.138 33.144 37 29 C 38.003 28.549 38.753 28.015 39.557 27.635 C 40.203 27.331 41.223 26.89 41.859 26.58 C 41.49 24.595 40.679 21.915 40 20 Z M 6.98 34.873 C 6.847 34.899 6.709 34.871 6.596 34.795 C 6.484 34.719 6.406 34.601 6.381 34.468 L 5.53 30.027 C 5.504 29.894 5.532 29.756 5.608 29.644 C 5.684 29.531 5.802 29.454 5.935 29.429 C 6.068 29.403 6.206 29.431 6.319 29.507 C 6.431 29.583 6.508 29.701 6.533 29.835 L 7.386 34.276 C 7.411 34.409 7.383 34.546 7.307 34.658 C 7.231 34.77 7.114 34.848 6.981 34.873 Z M 14.48 33.658 C 14.213 33.746 13.925 33.602 13.834 33.336 L 12.324 28.812 C 12.235 28.544 12.379 28.254 12.647 28.165 C 12.915 28.076 13.205 28.22 13.294 28.488 L 14.802 33.011 C 14.845 33.139 14.835 33.28 14.775 33.401 C 14.714 33.522 14.608 33.614 14.479 33.657 Z M 20.041 31.611 C 19.773 31.696 19.486 31.549 19.398 31.282 L 18.093 27.28 C 18.006 27.012 18.153 26.723 18.421 26.636 C 18.689 26.549 18.978 26.696 19.065 26.964 L 20.37 30.966 C 20.457 31.235 20.31 31.524 20.041 31.611 Z M 27.179 30.235 C 26.907 30.311 26.625 30.152 26.548 29.88 L 25.328 25.537 C 25.254 25.266 25.413 24.986 25.683 24.91 C 25.953 24.835 26.234 24.991 26.312 25.261 L 27.532 29.604 C 27.569 29.734 27.552 29.874 27.486 29.993 C 27.42 30.111 27.31 30.198 27.179 30.235 Z M 32.652 27.955 C 32.524 27.999 32.383 27.99 32.262 27.93 C 32.14 27.87 32.047 27.764 32.004 27.635 L 30.968 24.585 C 30.892 24.322 31.036 24.045 31.296 23.957 C 31.555 23.87 31.838 24.002 31.937 24.257 L 32.971 27.307 C 33.015 27.435 33.006 27.576 32.946 27.698 C 32.887 27.82 32.781 27.913 32.652 27.956 Z M 37.362 26.58 C 37.098 26.676 36.806 26.542 36.707 26.279 L 35.735 23.659 C 35.637 23.394 35.772 23.101 36.036 23.002 C 36.301 22.904 36.595 23.039 36.693 23.304 L 37.665 25.923 C 37.712 26.05 37.707 26.191 37.65 26.315 C 37.593 26.438 37.49 26.533 37.362 26.58 Z"
    fill="var(--icon-bg, #ffffff)"
  />

  <path
    d="M 42.5 47.5 C 32.805 50.687 21.814 53.848 11 54 C 9.39 48.84 7.363 42.496 6 37 C 16.455 35.993 27.214 33.113 37 29 C 37.77 28.655 38.857 28.3 39.5 28 C 40.495 34.126 41.62 41.371 42.5 47.5 Z"
    fill="var(--icon-bg, #ffffff)"
  />

  <path
    d="M 42.5 47.5 C 32.866 50.66 21.776 53.797 11 54 C 13.03 60.416 15.563 67.51 18 73.5 C 26.465 73.282 36.024 71.226 45.5 68 C 44.69 61.392 43.435 54.053 42.5 47.5 Z"
    fill="var(--icon-accent, #e3f2ff)"
  />

  <path
    d="M 6.959 34.903 C 6.826 34.93 6.688 34.901 6.576 34.825 C 6.463 34.749 6.386 34.632 6.36 34.498 L 5.509 30.057 C 5.483 29.924 5.512 29.786 5.588 29.674 C 5.664 29.562 5.781 29.485 5.914 29.459 C 6.048 29.433 6.186 29.462 6.298 29.538 C 6.41 29.614 6.487 29.732 6.511 29.865 L 7.365 34.306 C 7.391 34.439 7.363 34.577 7.287 34.689 C 7.211 34.801 7.093 34.878 6.96 34.903 Z M 14.458 33.687 C 14.191 33.775 13.903 33.632 13.812 33.365 L 12.302 28.842 C 12.213 28.575 12.358 28.285 12.625 28.195 C 12.893 28.106 13.183 28.251 13.272 28.518 L 14.78 33.041 C 14.824 33.17 14.814 33.31 14.753 33.431 C 14.693 33.552 14.587 33.645 14.458 33.687 Z M 20.02 31.641 C 19.752 31.726 19.466 31.579 19.377 31.312 L 18.072 27.31 C 17.985 27.042 18.132 26.754 18.4 26.666 C 18.669 26.579 18.957 26.726 19.044 26.994 L 20.349 30.996 C 20.437 31.265 20.289 31.554 20.02 31.641 Z M 27.157 30.265 C 26.886 30.34 26.604 30.182 26.527 29.91 L 25.306 25.567 C 25.233 25.297 25.391 25.017 25.661 24.941 C 25.932 24.865 26.213 25.022 26.29 25.291 L 27.51 29.634 C 27.587 29.906 27.43 30.188 27.158 30.265 Z M 32.631 27.986 C 32.503 28.03 32.363 28.021 32.241 27.961 C 32.119 27.901 32.027 27.795 31.983 27.666 L 30.947 24.616 C 30.868 24.353 31.012 24.073 31.273 23.985 C 31.534 23.896 31.819 24.03 31.916 24.287 L 32.95 27.337 C 32.995 27.466 32.986 27.606 32.926 27.728 C 32.866 27.85 32.76 27.943 32.631 27.986 Z M 37.341 26.61 C 37.215 26.658 37.074 26.653 36.951 26.597 C 36.828 26.54 36.732 26.437 36.685 26.31 L 35.714 23.688 C 35.616 23.424 35.751 23.13 36.016 23.032 C 36.281 22.934 36.574 23.069 36.672 23.333 L 37.644 25.953 C 37.692 26.081 37.687 26.222 37.63 26.345 C 37.573 26.468 37.469 26.564 37.341 26.61 Z"
    fill="currentColor"
  />

  <path
    d="M 45.959 68.139 C 44.327 54.752 42.425 41.4 40.256 28.089 C 40.907 27.78 41.56 27.467 42.197 27.155 L 42.22 27.14 C 42.251 27.123 42.279 27.104 42.305 27.081 C 42.317 27.071 42.329 27.058 42.341 27.046 L 42.374 27.009 L 42.401 26.969 C 42.411 26.955 42.419 26.941 42.426 26.926 C 42.434 26.912 42.441 26.897 42.446 26.882 C 42.452 26.867 42.456 26.852 42.461 26.836 C 42.466 26.82 42.47 26.804 42.473 26.788 C 42.477 26.771 42.478 26.754 42.48 26.738 L 42.481 26.69 C 42.481 26.672 42.48 26.653 42.476 26.635 L 42.475 26.607 C 42.068 24.289 41.456 22.011 40.646 19.801 L 40.645 19.796 C 40.645 19.795 40.645 19.793 40.643 19.793 L 40.633 19.769 C 40.624 19.746 40.613 19.724 40.6 19.703 L 40.579 19.673 C 40.567 19.657 40.554 19.638 40.541 19.623 C 40.533 19.613 40.522 19.608 40.513 19.599 C 40.499 19.584 40.484 19.57 40.467 19.557 L 40.437 19.54 C 40.42 19.528 40.402 19.517 40.382 19.508 C 40.373 19.502 40.362 19.5 40.352 19.496 C 40.332 19.488 40.312 19.479 40.29 19.474 L 40.249 19.466 C 40.23 19.463 40.212 19.46 40.193 19.459 C 40.173 19.457 40.153 19.46 40.133 19.46 C 40.121 19.462 40.108 19.46 40.095 19.462 C 35.519 20.091 30.965 20.873 26.441 21.808 L 26.431 21.743 C 26.204 20.139 25.975 18.534 25.75 16.93 C 28.588 12.831 32 8.959 35.898 5.421 C 36.003 5.325 36.063 5.19 36.064 5.048 C 36.065 4.905 36.008 4.769 35.904 4.671 L 31.077 0.138 C 30.872 -0.055 30.548 -0.044 30.355 0.161 L 18.124 13.14 C 18.015 13.257 17.967 13.417 17.992 13.574 C 18.529 16.828 19.087 20.078 19.665 23.324 C 13.135 24.903 6.686 26.801 0.341 29.011 C 0.329 29.014 0.319 29.021 0.307 29.027 C 0.291 29.033 0.275 29.04 0.259 29.048 L 0.218 29.076 C 0.191 29.094 0.165 29.116 0.143 29.14 C 0.131 29.152 0.12 29.164 0.109 29.177 C 0.099 29.189 0.091 29.203 0.081 29.217 L 0.055 29.258 L 0.037 29.304 C 0.023 29.334 0.014 29.366 0.009 29.398 C 0 29.447 -0.002 29.497 0.002 29.546 C 0.003 29.564 0.008 29.581 0.011 29.598 L 0.018 29.635 L 2.195 37.155 C 2.2 37.175 2.208 37.193 2.215 37.211 C 2.22 37.219 2.222 37.226 2.225 37.234 C 2.243 37.268 2.263 37.299 2.285 37.329 C 2.298 37.346 2.314 37.363 2.329 37.379 L 2.352 37.399 L 2.398 37.434 L 2.428 37.452 C 2.454 37.469 2.481 37.482 2.509 37.492 L 2.565 37.509 L 2.593 37.515 C 2.623 37.521 2.654 37.525 2.685 37.525 L 2.69 37.525 C 2.697 37.525 2.705 37.525 2.714 37.523 C 3.698 37.468 4.681 37.396 5.662 37.309 C 7.042 42.897 8.591 48.442 10.308 53.936 C 12.398 60.615 14.766 67.203 17.407 73.683 C 17.485 73.876 17.673 74.002 17.88 74.001 L 17.89 74.001 C 26.69 73.815 35.758 72.076 45.618 68.683 C 45.846 68.605 45.988 68.378 45.958 68.139 Z M 19.04 13.657 L 30.75 1.233 L 34.803 5.036 C 30.967 8.574 27.601 12.433 24.795 16.514 C 24.724 16.62 24.693 16.748 24.709 16.874 L 25.419 21.886 L 25.438 22.016 C 23.841 22.352 22.248 22.709 20.66 23.086 C 20.101 19.946 19.561 16.803 19.04 13.656 Z M 3.064 36.479 L 1.136 29.819 C 9.31 26.993 17.654 24.687 26.118 22.916 C 30.658 21.966 35.229 21.171 39.823 20.533 C 40.502 22.447 41.029 24.41 41.4 26.406 C 39.872 27.152 38.332 27.873 36.78 28.569 C 26.066 33.082 14.668 35.756 3.064 36.479 Z M 6.694 37.216 C 17.19 36.2 27.47 33.601 37.187 29.506 C 37.957 29.16 38.653 28.842 39.297 28.542 C 40.291 34.667 41.242 40.87 42.121 46.999 C 32.426 50.186 21.986 53.115 11.171 53.267 C 9.521 47.962 8.028 42.61 6.693 37.216 Z M 18.218 72.971 C 15.729 66.834 13.484 60.599 11.49 54.283 C 22.267 54.081 32.633 51.185 42.267 48.026 C 43.209 54.626 44.084 61.234 44.894 67.851 C 35.418 71.076 26.684 72.753 18.218 72.971 Z"
    fill="currentColor"
  />
</svg>