<svg
  class="icon-pen-tool"
  xmlns="http://www.w3.org/2000/svg"
  viewBox="0 0 76.072 76"
  fill="none"
  aria-hidden="true"
>
  <path
    d="M 28.696 68.998 C 32.964 59.983 48.952 49.797 48.952 49.797 C 41.227 43.213 41.62 22.099 41.62 22.099 C 41.62 22.099 25.942 35.973 15.954 34.165 C 15.954 34.165 18.201 52.989 13.932 62.003"
    fill="var(--icon-bg, #ffffff)"
  />

  <path
    d="M 31.323 43.774 L 41.592 22.099 M 28.696 69.012 C 32.964 59.998 48.952 49.811 48.952 49.811 C 41.227 43.228 41.62 22.113 41.62 22.113 C 41.62 22.113 25.942 35.987 15.954 34.18 C 15.954 34.18 18.201 53.003 13.932 62.017"
    fill="transparent"
    stroke="currentColor"
    stroke-linecap="round"
    stroke-linejoin="round"
  />

  <path
    d="M 31.063 49.353 C 30.773 49.984 30.166 50.41 29.475 50.469 C 28.783 50.528 28.113 50.21 27.721 49.638 C 27.328 49.065 27.274 48.326 27.578 47.702 C 28.035 46.74 29.185 46.329 30.147 46.786 C 31.109 47.242 31.52 48.392 31.063 49.354 Z"
    fill="currentColor"
  />

  <path
    d="M 47.028 17.857 C 46.378 19.229 44.739 19.814 43.368 19.164 C 41.996 18.514 41.411 16.876 42.06 15.504 C 42.71 14.132 44.349 13.547 45.721 14.197 C 47.093 14.847 47.678 16.486 47.028 17.858 Z"
    fill="transparent"
    stroke="currentColor"
    stroke-linecap="round"
    stroke-linejoin="round"
  />

  <path
    d="M 75.806 31.439 C 75.156 32.811 73.518 33.396 72.146 32.746 C 70.774 32.096 70.189 30.458 70.839 29.086 C 71.489 27.714 73.128 27.129 74.499 27.779 C 75.871 28.429 76.456 30.068 75.806 31.44 Z M 17.723 3.926 C 17.073 5.298 15.434 5.883 14.063 5.233 C 12.691 4.583 12.106 2.944 12.756 1.572 C 13.406 0.2 15.045 -0.385 16.417 0.265 C 17.788 0.915 18.373 2.554 17.723 3.926 Z"
    fill="currentColor"
  />

  <path
    d="M 70.977 29.311 L 46.578 17.754 C 46.578 17.754 67.694 32.725 61.928 53.996 M 17.211 3.843 L 41.61 15.401 C 41.61 15.401 16.648 8.545 3.843 26.482"
    fill="transparent"
    stroke="currentColor"
    stroke-linecap="round"
    stroke-miterlimit="10"
  />

  <path
    d="M 65.028 54.243 L 60.316 52.011 L 58.084 56.723 L 62.796 58.955 Z M 6.943 26.732 L 2.231 24.501 L 0 29.211 L 4.711 31.443 Z"
    fill="currentColor"
  />

  <path
    d="M 31.779 70.475 L 10.783 60.531 L 8.167 66.056 L 29.162 76 Z"
    fill="var(--icon-accent, #ffe3fb)"
    stroke="currentColor"
    stroke-linecap="round"
    stroke-linejoin="round"
  />
</svg>