<svg xmlns="http://www.w3.org/2000/svg" width="32.404" height="40.113" fill="none" overflow="visible">
    <path d="M 13.42 40.113 C 13.446 35.51 11.141 30.978 6.273 28.331 C 4.388 27.306 2.176 26.971 0 26.702 C 8.8 26.221 11.659 18.258 12.73 12.122 C 12.443 17.608 15.938 23.437 22.79 23.81 C 16.07 27.408 13.893 33.754 13.42 40.113 Z M 27.642 14.225 C 27.656 11.885 26.484 9.582 24.011 8.237 C 23.053 7.717 21.929 7.547 20.823 7.409 C 25.295 7.165 26.747 3.119 27.292 0 C 27.146 2.788 28.922 5.75 32.404 5.94 C 28.989 7.768 27.882 10.993 27.642 14.224 Z" fill="rgb(255, 231, 169)" stroke="rgb(29, 29, 29)" stroke-linecap="round" stroke-linejoin="round" stroke-dasharray=""></path>
</svg>