<svg
  class="decor-burst"
  xmlns="http://www.w3.org/2000/svg"
  viewBox="0 0 24 24"
  fill="none"
  aria-hidden="true"
>
  <path
    d="M 19.017 9.563 C 17.138 10.512 15.456 12.006 14.887 14.223 C 14.7 14.948 14.867 15.555 14.934 16.265 C 13.502 14.818 12.032 15.486 11.033 17.195 C 10.702 17.759 10.447 18.364 10.275 18.995 C 10.205 19.229 10.152 19.468 10.116 19.709 C 10.105 19.8 10.161 20.069 10.126 19.984 C 9.318 18.081 8.407 16.07 6.531 15.024 C 5.76 14.594 5.047 14.552 4.211 14.807 C 4.115 14.837 3.587 14.969 3.599 15.044 C 4.085 13.572 3.386 12.163 2.084 11.398 C 1.624 11.128 1.138 10.92 0.644 10.72 C 0.442 10.639 -0.098 10.546 0.05 10.478 C -0.21 10.551 0.626 10.361 0.716 10.328 C 1.258 10.132 1.87 9.905 2.349 9.578 C 3.249 8.964 4.661 7.265 3.225 5.514 C 3.225 5.514 3.477 5.641 3.525 5.658 C 3.767 5.743 4.005 5.808 4.258 5.854 C 5.008 5.989 5.809 5.902 6.464 5.487 C 8.032 4.494 8.334 1.69 8.543 0 C 8.459 0.105 8.676 0.452 8.715 0.529 C 9 1.089 9.303 1.639 9.642 2.169 C 10.563 3.608 13.037 6.015 14.813 4.221 C 14.695 4.189 14.58 4.898 14.567 4.985 C 14.46 5.687 14.534 6.376 14.935 6.975 C 15.871 8.373 17.397 9.563 19.017 9.563 Z"
    fill="#d1e8fd"
    stroke="currentColor"
    stroke-width="0.9"
    stroke-linecap="round"
    stroke-linejoin="round"
    transform="translate(2 2)"
  />
</svg>