<svg
  class="decor-star"
  xmlns="http://www.w3.org/2000/svg"
  viewBox="0 0 24 24"
  fill="none"
  aria-hidden="true"
>
  <path
    d="M 10.286 22 C 9.564 20.144 8.806 18.322 8.187 16.466 C 7.843 15.4 7.293 15.056 6.157 15.228 C 4.231 15.503 2.305 15.675 0.378 15.847 C 0.241 15.709 0.138 15.537 0 15.4 C 1.755 13.647 3.543 11.928 5.367 10.106 C 4.258 8.335 3.157 6.559 2.064 4.778 C 2.133 4.675 2.167 4.572 2.236 4.503 C 3.578 5.088 4.988 5.603 6.296 6.256 C 7.362 6.772 7.912 6.462 8.187 5.431 C 8.635 3.747 9.082 2.028 9.598 0 C 10.218 1.444 10.871 2.75 11.318 4.125 C 11.834 5.775 12.763 6.222 14.38 5.637 C 15.756 5.157 17.235 4.881 19.093 4.4 C 18.061 6.222 17.269 7.734 16.341 9.178 C 15.721 10.14 15.687 10.862 16.375 11.791 C 17.441 13.234 18.405 14.781 19.643 16.603 C 17.063 16.259 14.861 15.984 12.488 15.675 C 11.903 17.806 11.352 19.869 10.768 21.965 C 10.63 22 10.458 22 10.286 22 Z"
    fill="var(--icon-fill, #ffe7a9)"
    stroke="currentColor"
    stroke-width="0.9"
    stroke-linecap="butt"
    stroke-linejoin="round"
    transform="translate(2 1)"
  />
</svg>