<svg
  class="decor-heart"
  xmlns="http://www.w3.org/2000/svg"
  viewBox="0 0 24 24"
  fill="none"
  aria-hidden="true"
>
  <path
    d="M 1.142 8.435 C 1.857 9.699 2.718 10.876 3.707 11.94 C 4.927 13.258 6.329 14.348 7.844 15.299 C 8.221 15.534 8.607 15.76 8.986 15.994 C 9.546 16.337 10.076 16.369 10.657 15.991 C 11.593 15.385 12.445 14.679 13.275 13.939 C 14.77 12.616 16.087 11.105 17.19 9.442 C 18.267 7.807 18.952 6.015 18.78 4.014 C 18.652 2.495 17.913 1.319 16.577 0.539 C 15.289 -0.211 13.974 -0.113 12.659 0.437 C 11.487 0.927 10.609 1.777 9.904 2.817 C 9.818 2.943 9.738 3.073 9.649 3.197 C 9.417 3.525 9.18 3.546 8.899 3.26 C 8.546 2.902 8.213 2.522 7.846 2.18 C 6.949 1.344 5.875 0.83 4.682 0.587 C 2.374 0.112 0.654 1.31 0.146 3.529 C 0.046 3.969 0.046 4.434 0 4.886 C 0.038 6.189 0.519 7.331 1.143 8.44 L 1.5 9 Z"
    fill="var(--icon-fill, #ffe7a9)"
    stroke="currentColor"
    stroke-width="0.9"
    stroke-linecap="butt"
    stroke-linejoin="miter"
    stroke-miterlimit="10"
    transform="translate(3 4)"
  />
</svg>