<svg
  xmlns="http://www.w3.org/2000/svg"
  viewBox="0 0 246.627 62.23"
  fill="none"
>
  <path
    d="M 2.541 23.3 C 6.339 19.241 14.524 8.317 19.001 7.086 C 31.348 3.694 63.288 0.49 76.49 0.137 C 116.295 -0.928 158.022 4.411 197.552 9.547 C 210.14 11.181 228.334 14.273 235.057 22.557 C 238.023 26.21 243.588 28.632 245.799 32.814 C 245.931 33.063 247.03 33.708 246.469 34.079 C 243.031 36.36 232.639 36.633 228.105 37.152 C 227.752 37.192 223.481 37.124 223.436 37.688 C 223.423 37.845 233.933 43.131 238.991 45.602 C 239.229 45.719 243.133 48.269 242.605 48.62 C 237.882 51.756 224.427 47.861 219.666 51.023 C 218.936 51.503 222.358 52.917 222.585 53.075 C 225.17 54.898 227.226 57.295 229.81 59.111 C 230.642 59.695 233.904 61.542 233.064 61.795 C 229.114 62.994 220.33 60.449 216.214 60.443 C 205.869 60.421 195.433 60.083 185.045 59.761 C 143.515 58.475 102.229 60.505 60.814 61.01 C 46.704 61.18 32.45 60.676 18.391 61.24 C 16.997 61.296 6.379 62.748 5.606 62.033 C 5.094 61.559 9.016 58.673 9.368 58.394 C 14.223 54.611 18.668 52.487 25.03 50.559 C 26.052 50.249 31.296 49.34 31.376 48.34 C 31.438 47.569 25.803 47.053 24.937 46.914 C 18.928 45.954 13.217 46.278 7.294 45.803 C 6.432 45.733 1.789 45.888 1.164 45.311 C -0.422 43.838 4.99 40.772 5.813 40.227 C 11.712 36.31 17.114 32.099 23.581 30.137 C 24.663 29.807 19.013 28.898 18.673 28.833 C 14.373 27.996 10.366 28.469 6.009 28.119 C 5.298 28.062 0.269 27.989 0.234 27.959 C -0.826 26.98 2.034 23.845 2.541 23.299 Z"
    fill="var(--banner-fill, #e3f2ff)"
    stroke="var(--banner-stroke, #1d1d1d)"
    stroke-linecap="round"
    stroke-linejoin="round"
  />

  <path
    d="M 32.922 7.556 C 33.015 5.243 22.847 16.577 23.533 17.386 C 24.651 18.696 35.42 19.281 36.324 19.156 C 36.657 15.008 37.227 7.901 32.922 7.556 Z M 80.901 0 C 79.523 0.022 78.145 0.05 76.771 0.088 C 74.9 0.138 72.651 0.245 70.137 0.402 C 68.7 2.152 67.687 3.632 67.919 3.906 C 69.037 5.218 79.807 5.802 80.71 5.677 C 80.84 4.046 81.009 1.955 80.902 0 Z M 128.037 36.481 C 128.13 34.169 117.962 45.503 118.648 46.311 C 119.767 47.621 130.535 48.206 131.439 48.082 C 131.772 43.933 132.342 36.827 128.037 36.482 Z M 197.498 60.076 C 193.936 59.977 190.375 59.871 186.813 59.758 C 189.624 56.36 193.941 52.049 193.88 53.56 C 196.661 53.783 197.408 56.83 197.498 60.076 Z M 139.119 2.625 C 136.541 2.385 133.961 2.158 131.382 1.945 C 128.764 4.704 126.012 8.163 126.38 8.595 C 127.498 9.908 138.267 10.491 139.171 10.367 C 139.35 8.137 139.597 5.054 139.119 2.624 Z M 226.215 16.157 C 229.696 17.697 232.679 19.566 234.768 21.847 C 234.724 22.585 234.668 23.289 234.617 23.923 C 233.713 24.048 222.944 23.463 221.826 22.152 C 221.487 21.752 223.8 18.782 226.215 16.157 Z M 40.792 60.933 C 37.498 60.912 34.204 60.91 30.909 60.928 C 32.192 57.503 33.944 54.768 37.316 53.278 C 37.65 53.733 39.544 57.64 40.792 60.933 Z M 72.681 47.665 C 70.603 48.685 84.318 49.765 84.701 48.777 C 85.322 47.169 80.709 37.421 80.171 36.685 C 75.763 38.632 74.123 42.705 72.681 47.665 Z M 154.795 36.234 C 152.716 37.254 166.431 38.333 166.815 37.344 C 167.436 35.737 162.823 25.989 162.284 25.253 C 157.877 27.2 156.236 31.273 154.795 36.233 Z M 52.108 30.933 C 52.18 29.065 45.931 38.368 46.509 39.023 C 47.451 40.083 56.495 40.583 57.253 40.486 C 57.564 36.61 55.203 33.872 52.108 30.933 Z M 209.825 32.983 C 209.897 31.116 203.648 40.419 204.226 41.073 C 205.168 42.134 214.212 42.633 214.97 42.536 C 215.281 38.66 212.921 35.922 209.825 32.983 Z M 96.494 17.454 C 96.566 15.586 90.317 24.889 90.895 25.543 C 91.837 26.605 100.881 27.104 101.639 27.006 C 101.95 23.131 99.589 20.393 96.494 17.454 Z"
    fill="var(--banner-pattern, #1d1d1d)"
    stroke="var(--banner-pattern, #1d1d1d)"
    stroke-linecap="round"
    stroke-linejoin="round"
  />

  <path
    d="M 155.606 59.098 C 151.402 59.1 147.2 59.125 143 59.167 C 144.769 55.36 149.641 47.804 149.554 49.843 C 152.392 52.826 154.733 55.662 155.606 59.098 Z"
    fill="var(--banner-pattern, #1d1d1d)"
  />

  <path
    d="M 178.751 6.829 C 176.526 6.55 174.297 6.273 172.063 6 C 170.613 8.144 169.255 10.545 169.538 10.865 C 170.481 11.927 179.524 12.427 180.283 12.329 C 180.451 10.234 179.838 8.471 178.751 6.829 Z"
    fill="var(--banner-pattern, #1d1d1d)"
    stroke="var(--banner-pattern, #1d1d1d)"
    stroke-linecap="round"
    stroke-linejoin="round"
  />
</svg>